<svg data-v-423bf9ae="" xmlns="http://www.w3.org/2000/svg" viewBox="0 0 323 107" class="iconLeftSlogan"><!----><!----><!----><g data-v-423bf9ae="" id="f6e40cee-9466-419f-bfaf-db3793c77c19" fill="white" transform="matrix(5.732484320181283,0,0,5.732484320181283,101.45383691454765,-18.630574517426325)"><path d="M7.75 13.23L7.75 13.23L7.75 13.23Q7.62 13.43 7.44 13.53L7.44 13.53L7.44 13.53Q7.26 13.63 7.10 13.67L7.10 13.67L7.10 13.67Q6.90 13.73 6.69 13.71L6.69 13.71L6.69 13.71Q6.60 13.71 6.51 13.67L6.51 13.67L6.51 13.67Q6.43 13.64 6.33 13.60L6.33 13.60L6.33 13.60Q6.23 13.55 6.17 13.45L6.17 13.45L6.17 13.45Q5.97 12.77 5.82 12.13L5.82 12.13L5.82 12.13Q5.67 11.48 5.56 10.98L5.56 10.98L5.56 10.98Q5.43 10.39 5.33 9.87L5.33 9.87L5.33 9.87Q4.96 9.86 4.23 9.86L4.23 9.86L4.23 9.86Q3.50 9.87 2.65 9.95L2.65 9.95L2.65 9.95Q2.39 10.77 2.24 11.33L2.24 11.33L2.24 11.33Q2.09 11.89 2.02 12.26L2.02 12.26L2.02 12.26Q1.96 12.63 1.97 12.87L1.97 12.87L1.97 12.87Q1.98 13.11 2.05 13.29L2.05 13.29L2.05 13.29Q1.86 13.48 1.67 13.57L1.67 13.57L1.67 13.57Q1.49 13.66 1.34 13.69L1.34 13.69L1.34 13.69Q1.16 13.73 1.00 13.71L1.00 13.71L1.00 13.71Q0.78 13.69 0.64 13.64L0.64 13.64L0.64 13.64Q0.51 13.59 0.44 13.49L0.44 13.49L0.44 13.49Q0.38 13.38 0.40 13.19L0.40 13.19L0.40 13.19Q0.42 13.00 0.51 12.69L0.51 12.69L0.51 12.69Q0.59 12.41 0.81 11.71L0.81 11.71L0.81 11.71Q1.04 11.01 1.33 10.10L1.33 10.10L1.33 10.10Q0.81 10.14 0.53 10.05L0.53 10.05L0.53 10.05Q0.25 9.95 0.14 9.53L0.14 9.53L0.14 9.53Q0.36 9.46 0.61 9.40L0.61 9.40L0.61 9.40Q0.86 9.34 1.09 9.28L1.09 9.28L1.09 9.28Q1.35 9.23 1.63 9.19L1.63 9.19L1.63 9.19Q1.91 8.29 2.21 7.41L2.21 7.41L2.21 7.41Q2.52 6.54 2.78 5.84L2.78 5.84L3.57 3.72L3.57 3.72Q3.60 3.64 3.86 3.54L3.86 3.54L3.86 3.54Q4.12 3.45 4.43 3.38L4.43 3.38L4.43 3.38Q4.74 3.32 5.03 3.32L5.03 3.32L5.03 3.32Q5.32 3.32 5.40 3.45L5.40 3.45L5.40 3.45Q5.44 3.73 5.52 4.16L5.52 4.16L5.52 4.16Q5.59 4.58 5.66 4.98L5.66 4.98L5.66 4.98Q5.74 5.44 5.85 5.93L5.85 5.93L5.85 5.93Q5.97 6.62 6.12 7.45L6.12 7.45L6.12 7.45Q6.26 8.29 6.48 9.23L6.48 9.23L6.48 9.23Q6.70 10.17 7 11.18L7 11.18L7 11.18Q7.30 12.20 7.75 13.23ZM3.95 8.96L3.95 8.96L3.95 8.96Q4.39 8.94 4.68 8.94L4.68 8.94L4.68 8.94Q4.96 8.94 5.17 8.96L5.17 8.96L5.13 8.75L5.13 8.75Q5.04 8.24 4.96 7.67L4.96 7.67L4.96 7.67Q4.87 7.10 4.78 6.54L4.78 6.54L4.78 6.54Q4.69 5.97 4.61 5.47L4.61 5.47L4.61 5.47Q4.53 4.96 4.47 4.58L4.47 4.58L4.47 4.58Q4.33 4.94 4.16 5.43L4.16 5.43L4.16 5.43Q3.98 5.93 3.77 6.52L3.77 6.52L3.77 6.52Q3.57 7.11 3.36 7.75L3.36 7.75L3.36 7.75Q3.14 8.39 2.94 9.02L2.94 9.02L2.94 9.02Q3.19 9.00 3.43 8.98L3.43 8.98L3.43 8.98Q3.68 8.97 3.95 8.96ZM8.44 4.05L8.44 4.05L8.44 4.05Q8.54 3.90 8.67 3.79L8.67 3.79L8.67 3.79Q8.80 3.68 8.94 3.61L8.94 3.61L8.94 3.61Q9.09 3.54 9.26 3.50L9.26 3.50L9.26 3.50Q9.38 3.47 9.49 3.47L9.49 3.47L9.49 3.47Q9.58 3.47 9.67 3.49L9.67 3.49L9.67 3.49Q9.76 3.50 9.82 3.55L9.82 3.55L9.82 3.55Q9.79 4.21 9.77 4.67L9.77 4.67L9.77 4.67Q9.75 5.13 9.73 5.47L9.73 5.47L9.73 5.47Q9.71 5.81 9.69 6.08L9.69 6.08L9.69 6.08Q9.68 6.34 9.66 6.62L9.66 6.62L9.66 6.62Q9.64 6.89 9.61 7.21L9.61 7.21L9.61 7.21Q9.58 7.53 9.56 7.98L9.56 7.98L9.56 7.98Q9.53 8.27 9.52 8.57L9.52 8.57L9.52 8.57Q9.50 8.86 9.49 9.16L9.49 9.16L9.49 9.16Q9.61 8.82 9.80 8.45L9.80 8.45L9.80 8.45Q9.98 8.08 10.23 7.78L10.23 7.78L10.23 7.78Q10.47 7.48 10.79 7.28L10.79 7.28L10.79 7.28Q11.10 7.08 11.47 7.08L11.47 7.08L11.47 7.08Q11.99 7.08 12.30 7.38L12.30 7.38L12.30 7.38Q12.62 7.68 12.78 8.11L12.78 8.11L12.78 8.11Q12.95 8.54 13.00 9.02L13.00 9.02L13.00 9.02Q13.04 9.50 13.04 9.87L13.04 9.87L13.04 9.87Q13.04 10.23 12.95 10.71L12.95 10.71L12.95 10.71Q12.87 11.20 12.64 11.64L12.64 11.64L12.64 11.64Q12.41 12.09 12.04 12.40L12.04 12.40L12.04 12.40Q11.68 12.71 11.12 12.71L11.12 12.71L11.12 12.71Q10.72 12.71 10.45 12.55L10.45 12.55L10.45 12.55Q10.17 12.39 9.99 12.17L9.99 12.17L9.99 12.17Q9.82 11.95 9.74 11.73L9.74 11.73L9.74 11.73Q9.67 11.51 9.67 11.42L9.67 11.42L9.67 11.42Q9.67 11.32 9.73 11.19L9.73 11.19L9.73 11.19Q9.80 11.06 9.90 10.94L9.90 10.94L9.90 10.94Q9.99 10.83 10.10 10.75L10.10 10.75L10.10 10.75Q10.21 10.68 10.28 10.69L10.28 10.69L10.28 10.69Q10.25 11.14 10.34 11.38L10.34 11.38L10.34 11.38Q10.43 11.62 10.55 11.73L10.55 11.73L10.55 11.73Q10.71 11.87 10.88 11.88L10.88 11.88L10.88 11.88Q11.14 11.88 11.34 11.63L11.34 11.63L11.34 11.63Q11.54 11.39 11.68 11.03L11.68 11.03L11.68 11.03Q11.81 10.68 11.89 10.26L11.89 10.26L11.89 10.26Q11.96 9.84 11.96 9.52L11.96 9.52L11.96 9.52Q11.96 9.27 11.93 8.99L11.93 8.99L11.93 8.99Q11.89 8.71 11.83 8.47L11.83 8.47L11.83 8.47Q11.76 8.23 11.63 8.08L11.63 8.08L11.63 8.08Q11.51 7.93 11.33 7.93L11.33 7.93L11.33 7.93Q11.03 7.93 10.71 8.27L10.71 8.27L10.71 8.27Q10.38 8.61 10.10 9.17L10.10 9.17L10.10 9.17Q9.83 9.72 9.65 10.42L9.65 10.42L9.65 10.42Q9.47 11.12 9.49 11.84L9.49 11.84L9.49 11.84Q9.49 12.03 9.51 12.17L9.51 12.17L9.51 12.17Q9.53 12.32 9.56 12.43L9.56 12.43L9.56 12.43Q9.23 12.56 9.04 12.59L9.04 12.59L9.04 12.59Q8.93 12.62 8.86 12.61L8.86 12.61L8.86 12.61Q8.67 12.61 8.54 12.50L8.54 12.50L8.54 12.50Q8.42 12.39 8.39 12.03L8.39 12.03L8.39 12.03Q8.38 11.91 8.38 11.35L8.38 11.35L8.38 11.35Q8.38 10.80 8.38 10.01L8.38 10.01L8.38 10.01Q8.38 9.23 8.39 8.31L8.39 8.31L8.39 8.31Q8.39 7.40 8.40 6.55L8.40 6.55L8.40 6.55Q8.41 5.70 8.42 5.02L8.42 5.02L8.42 5.02Q8.42 4.35 8.44 4.05ZM18.28 3.88L18.28 3.88L18.28 3.88Q18.28 4.03 18.25 4.47L18.25 4.47L18.25 4.47Q18.22 4.91 18.18 5.52L18.18 5.52L18.18 5.52Q18.14 6.14 18.10 6.88L18.10 6.88L18.10 6.88Q18.06 7.62 18.03 8.38L18.03 8.38L18.03 8.38Q18.01 9.15 17.99 9.81L17.99 9.81L17.99 9.81Q17.96 10.47 17.97 10.99L17.97 10.99L17.97 10.99Q17.98 11.51 18.02 11.86L18.02 11.86L18.02 11.86Q18.06 12.21 18.14 12.33L18.14 12.33L17.53 12.56L17.53 12.56Q17.46 12.59 17.36 12.59L17.36 12.59L17.36 12.59Q17.27 12.59 17.17 12.54L17.17 12.54L17.17 12.54Q17.06 12.48 16.99 12.35L16.99 12.35L16.99 12.35Q16.93 12.21 16.93 11.96L16.93 11.96L16.93 11.96Q16.93 11.87 16.93 11.72L16.93 11.72L16.93 11.72Q16.94 11.58 16.94 11.39L16.94 11.39L16.94 11.39Q16.78 11.66 16.58 11.92L16.58 11.92L16.58 11.92Q16.39 12.18 16.17 12.37L16.17 12.37L16.17 12.37Q15.94 12.56 15.68 12.68L15.68 12.68L15.68 12.68Q15.42 12.80 15.13 12.80L15.13 12.80L15.13 12.80Q14.86 12.80 14.60 12.68L14.60 12.68L14.60 12.68Q14.34 12.56 14.14 12.33L14.14 12.33L14.14 12.33Q13.93 12.10 13.80 11.73L13.80 11.73L13.80 11.73Q13.67 11.36 13.67 10.84L13.67 10.84L13.67 10.84Q13.67 9.90 13.89 9.19L13.89 9.19L13.89 9.19Q14.11 8.49 14.44 8.02L14.44 8.02L14.44 8.02Q14.78 7.55 15.17 7.31L15.17 7.31L15.17 7.31Q15.56 7.07 15.89 7.07L15.89 7.07L15.89 7.07Q16.39 7.07 16.67 7.33L16.67 7.33L16.67 7.33Q16.94 7.60 17.06 7.89L17.06 7.89L17.06 7.89Q17.08 7.49 17.08 7.14L17.08 7.14L17.08 7.14Q17.09 6.79 17.09 6.55L17.09 6.55L17.09 6.55Q17.09 5.54 17.05 4.74L17.05 4.74L17.05 4.74Q17.01 3.95 16.84 3.54L16.84 3.54L16.84 3.54Q17.04 3.43 17.19 3.38L17.19 3.38L17.19 3.38Q17.35 3.32 17.47 3.29L17.47 3.29L17.47 3.29Q17.62 3.25 17.73 3.25L17.73 3.25L17.73 3.25Q18.03 3.25 18.16 3.42L18.16 3.42L18.16 3.42Q18.28 3.60 18.28 3.88ZM16.98 10.23L16.98 10.23L16.98 10.23Q17.01 9.87 17.01 9.48L17.01 9.48L17.01 9.48Q17.02 9.09 17.04 8.70L17.04 8.70L17.04 8.70Q16.94 8.85 16.81 8.96L16.81 8.96L16.81 8.96Q16.68 9.06 16.53 9.01L16.53 9.01L16.53 9.01Q16.58 8.60 16.52 8.38L16.52 8.38L16.52 8.38Q16.46 8.16 16.35 8.05L16.35 8.05L16.35 8.05Q16.23 7.93 16.06 7.92L16.06 7.92L16.06 7.92Q15.82 7.92 15.58 8.19L15.58 8.19L15.58 8.19Q15.34 8.46 15.16 8.87L15.16 8.87L15.16 8.87Q14.97 9.27 14.86 9.73L14.86 9.73L14.86 9.73Q14.75 10.19 14.75 10.57L14.75 10.57L14.75 10.57Q14.75 11.33 14.96 11.63L14.96 11.63L14.96 11.63Q15.18 11.94 15.42 11.94L15.42 11.94L15.42 11.94Q15.63 11.94 15.85 11.77L15.85 11.77L15.85 11.77Q16.08 11.61 16.29 11.35L16.29 11.35L16.29 11.35Q16.50 11.09 16.69 10.79L16.69 10.79L16.69 10.79Q16.87 10.50 16.98 10.23ZM23.02 11.87L23.02 11.87L23.02 11.87Q23.05 11.96 23.11 12.04L23.11 12.04L23.11 12.04Q23.15 12.11 23.22 12.17L23.22 12.17L23.22 12.17Q23.30 12.24 23.41 12.25L23.41 12.25L23.41 12.25Q23.31 12.44 23.21 12.51L23.21 12.51L23.21 12.51Q23.16 12.55 23.12 12.56L23.12 12.56L23.12 12.56Q23.00 12.61 22.75 12.61L22.75 12.61L22.75 12.61Q22.50 12.61 22.27 12.46L22.27 12.46L22.27 12.46Q22.19 12.39 22.12 12.25L22.12 12.25L22.12 12.25Q22.05 12.14 22.00 11.94L22.00 11.94L22.00 11.94Q21.96 11.74 21.93 11.43L21.93 11.43L21.93 11.43Q21.74 11.84 21.50 12.08L21.50 12.08L21.50 12.08Q21.26 12.32 21.03 12.43L21.03 12.43L21.03 12.43Q20.77 12.58 20.49 12.61L20.49 12.61L20.49 12.61Q20.15 12.63 19.84 12.49L19.84 12.49L19.84 12.49Q19.54 12.35 19.33 12.05L19.33 12.05L19.33 12.05Q19.11 11.76 19.00 11.33L19.00 11.33L19.00 11.33Q18.89 10.91 18.94 10.38L18.94 10.38L18.94 10.38Q18.98 9.82 19.15 9.38L19.15 9.38L19.15 9.38Q19.33 8.94 19.58 8.60L19.58 8.60L19.58 8.60Q19.82 8.26 20.10 8.02L20.10 8.02L20.10 8.02Q20.37 7.78 20.62 7.62L20.62 7.62L20.62 7.62Q20.88 7.46 21.06 7.39L21.06 7.39L21.06 7.39Q21.25 7.31 21.30 7.30L21.30 7.30L21.30 7.30Q21.45 7.26 21.56 7.27L21.56 7.27L21.56 7.27Q21.67 7.29 21.75 7.40L21.75 7.40L21.75 7.40Q21.78 7.44 21.82 7.49L21.82 7.49L21.82 7.49Q21.85 7.55 21.89 7.64L21.89 7.64L21.89 7.64Q21.93 7.72 21.96 7.83L21.96 7.83L21.96 7.83Q21.63 7.98 21.34 8.17L21.34 8.17L21.34 8.17Q21.05 8.35 20.82 8.61L20.82 8.61L20.82 8.61Q20.58 8.87 20.40 9.24L20.40 9.24L20.40 9.24Q20.22 9.61 20.13 10.14L20.13 10.14L20.13 10.14Q19.99 10.81 20.20 11.22L20.20 11.22L20.20 11.22Q20.41 11.63 20.78 11.57L20.78 11.57L20.78 11.57Q21 11.50 21.21 11.31L21.21 11.31L21.21 11.31Q21.38 11.14 21.58 10.81L21.58 10.81L21.58 10.81Q21.78 10.49 21.96 9.91L21.96 9.91L21.96 9.91Q22.03 9.09 22.07 8.62L22.07 8.62L22.07 8.62Q22.12 8.15 22.16 7.90L22.16 7.90L22.16 7.90Q22.22 7.62 22.24 7.52L22.24 7.52L22.24 7.52Q22.29 7.45 22.41 7.39L22.41 7.39L22.41 7.39Q22.53 7.33 22.68 7.29L22.68 7.29L22.68 7.29Q22.83 7.25 22.96 7.24L22.96 7.24L22.96 7.24Q23.08 7.23 23.12 7.25L23.12 7.25L23.12 7.25Q23.15 7.26 23.15 7.58L23.15 7.58L23.15 7.58Q23.15 7.90 23.13 8.39L23.13 8.39L23.13 8.39Q23.11 8.87 23.08 9.44L23.08 9.44L23.08 9.44Q23.05 10.01 23.03 10.51L23.03 10.51L23.03 10.51Q23.01 11.02 23.00 11.40L23.00 11.40L23.00 11.40Q23.00 11.77 23.02 11.87ZM25.98 3.71L25.98 3.71L25.98 3.71Q25.95 4.20 25.88 4.84L25.88 4.84L25.88 4.84Q25.81 5.48 25.74 6.22L25.74 6.22L25.74 6.22Q25.66 6.96 25.59 7.77L25.59 7.77L25.59 7.77Q25.51 8.57 25.46 9.39L25.46 9.39L25.46 9.39Q25.40 10.21 25.41 10.73L25.41 10.73L25.41 10.73Q25.42 11.24 25.47 11.57L25.47 11.57L25.47 11.57Q25.53 11.89 25.62 12.09L25.62 12.09L25.62 12.09Q25.72 12.28 25.87 12.46L25.87 12.46L25.87 12.46Q25.69 12.56 25.54 12.62L25.54 12.62L25.54 12.62Q25.39 12.67 25.28 12.70L25.28 12.70L25.28 12.70Q25.14 12.74 25.03 12.74L25.03 12.74L25.03 12.74Q24.83 12.74 24.68 12.54L24.68 12.54L24.68 12.54Q24.53 12.35 24.44 12.03L24.44 12.03L24.44 12.03Q24.35 11.72 24.30 11.33L24.30 11.33L24.30 11.33Q24.25 10.94 24.25 10.55L24.25 10.55L24.25 10.55Q24.25 10.14 24.28 9.60L24.28 9.60L24.28 9.60Q24.31 9.06 24.34 8.46L24.34 8.46L24.34 8.46Q24.38 7.85 24.42 7.18L24.42 7.18L24.42 7.18Q24.46 6.52 24.49 5.87L24.49 5.87L24.49 5.87Q24.51 5.36 24.54 4.95L24.54 4.95L24.54 4.95Q24.57 4.59 24.58 4.30L24.58 4.30L24.58 4.30Q24.60 4.01 24.57 3.95L24.57 3.95L24.57 3.95Q24.65 3.84 24.77 3.79L24.77 3.79L24.77 3.79Q24.90 3.73 25.01 3.69L25.01 3.69L25.01 3.69Q25.14 3.65 25.28 3.62L25.28 3.62L25.54 3.62L25.54 3.62Q25.65 3.62 25.77 3.64L25.77 3.64L25.77 3.64Q25.89 3.66 25.98 3.71ZM28.40 3.71L28.40 3.71L28.40 3.71Q28.37 4.20 28.30 4.84L28.30 4.84L28.30 4.84Q28.23 5.48 28.16 6.22L28.16 6.22L28.16 6.22Q28.08 6.96 28.01 7.77L28.01 7.77L28.01 7.77Q27.93 8.57 27.88 9.39L27.88 9.39L27.88 9.39Q27.82 10.21 27.83 10.73L27.83 10.73L27.83 10.73Q27.84 11.24 27.89 11.57L27.89 11.57L27.89 11.57Q27.95 11.89 28.04 12.09L28.04 12.09L28.04 12.09Q28.14 12.28 28.29 12.46L28.29 12.46L28.29 12.46Q28.11 12.56 27.96 12.62L27.96 12.62L27.96 12.62Q27.81 12.67 27.70 12.70L27.70 12.70L27.70 12.70Q27.56 12.74 27.45 12.74L27.45 12.74L27.45 12.74Q27.25 12.74 27.10 12.54L27.10 12.54L27.10 12.54Q26.95 12.35 26.86 12.03L26.86 12.03L26.86 12.03Q26.77 11.72 26.72 11.33L26.72 11.33L26.72 11.33Q26.67 10.94 26.67 10.55L26.67 10.55L26.67 10.55Q26.67 10.14 26.70 9.60L26.70 9.60L26.70 9.60Q26.73 9.06 26.76 8.46L26.76 8.46L26.76 8.46Q26.80 7.85 26.84 7.18L26.84 7.18L26.84 7.18Q26.88 6.52 26.91 5.87L26.91 5.87L26.91 5.87Q26.93 5.36 26.96 4.95L26.96 4.95L26.96 4.95Q26.99 4.59 27.00 4.30L27.00 4.30L27.00 4.30Q27.02 4.01 26.99 3.95L26.99 3.95L26.99 3.95Q27.07 3.84 27.19 3.79L27.19 3.79L27.19 3.79Q27.32 3.73 27.43 3.69L27.43 3.69L27.43 3.69Q27.56 3.65 27.70 3.62L27.70 3.62L27.96 3.62L27.96 3.62Q28.07 3.62 28.19 3.64L28.19 3.64L28.19 3.64Q28.31 3.66 28.40 3.71ZM32.99 11.87L32.99 11.87L32.99 11.87Q33.02 11.96 33.07 12.04L33.07 12.04L33.07 12.04Q33.11 12.11 33.19 12.17L33.19 12.17L33.19 12.17Q33.26 12.24 33.37 12.25L33.37 12.25L33.37 12.25Q33.28 12.44 33.18 12.51L33.18 12.51L33.18 12.51Q33.13 12.55 33.09 12.56L33.09 12.56L33.09 12.56Q32.96 12.61 32.72 12.61L32.72 12.61L32.72 12.61Q32.47 12.61 32.24 12.46L32.24 12.46L32.24 12.46Q32.16 12.39 32.09 12.25L32.09 12.25L32.09 12.25Q32.02 12.14 31.97 11.94L31.97 11.94L31.97 11.94Q31.92 11.74 31.90 11.43L31.90 11.43L31.90 11.43Q31.71 11.84 31.47 12.08L31.47 12.08L31.47 12.08Q31.23 12.32 30.99 12.43L30.99 12.43L30.99 12.43Q30.73 12.58 30.46 12.61L30.46 12.61L30.46 12.61Q30.12 12.63 29.81 12.49L29.81 12.49L29.81 12.49Q29.50 12.35 29.29 12.05L29.29 12.05L29.29 12.05Q29.08 11.76 28.97 11.33L28.97 11.33L28.97 11.33Q28.86 10.91 28.90 10.38L28.90 10.38L28.90 10.38Q28.94 9.82 29.12 9.38L29.12 9.38L29.12 9.38Q29.30 8.94 29.54 8.60L29.54 8.60L29.54 8.60Q29.79 8.26 30.06 8.02L30.06 8.02L30.06 8.02Q30.34 7.78 30.59 7.62L30.59 7.62L30.59 7.62Q30.84 7.46 31.03 7.39L31.03 7.39L31.03 7.39Q31.21 7.31 31.27 7.30L31.27 7.30L31.27 7.30Q31.42 7.26 31.53 7.27L31.53 7.27L31.53 7.27Q31.64 7.29 31.72 7.40L31.72 7.40L31.72 7.40Q31.75 7.44 31.79 7.49L31.79 7.49L31.79 7.49Q31.81 7.55 31.86 7.64L31.86 7.64L31.86 7.64Q31.90 7.72 31.92 7.83L31.92 7.83L31.92 7.83Q31.60 7.98 31.31 8.17L31.31 8.17L31.31 8.17Q31.02 8.35 30.78 8.61L30.78 8.61L30.78 8.61Q30.54 8.87 30.37 9.24L30.37 9.24L30.37 9.24Q30.19 9.61 30.09 10.14L30.09 10.14L30.09 10.14Q29.96 10.81 30.17 11.22L30.17 11.22L30.17 11.22Q30.38 11.63 30.75 11.57L30.75 11.57L30.75 11.57Q30.97 11.50 31.17 11.31L31.17 11.31L31.17 11.31Q31.35 11.14 31.55 10.81L31.55 10.81L31.55 10.81Q31.75 10.49 31.92 9.91L31.92 9.91L31.92 9.91Q31.99 9.09 32.04 8.62L32.04 8.62L32.04 8.62Q32.09 8.15 32.13 7.90L32.13 7.90L32.13 7.90Q32.18 7.62 32.21 7.52L32.21 7.52L32.21 7.52Q32.25 7.45 32.38 7.39L32.38 7.39L32.38 7.39Q32.50 7.33 32.65 7.29L32.65 7.29L32.65 7.29Q32.80 7.25 32.92 7.24L32.92 7.24L32.92 7.24Q33.04 7.23 33.09 7.25L33.09 7.25L33.09 7.25Q33.11 7.26 33.11 7.58L33.11 7.58L33.11 7.58Q33.11 7.90 33.09 8.39L33.09 8.39L33.09 8.39Q33.07 8.87 33.04 9.44L33.04 9.44L33.04 9.44Q33.02 10.01 33.00 10.51L33.00 10.51L33.00 10.51Q32.98 11.02 32.97 11.40L32.97 11.40L32.97 11.40Q32.96 11.77 32.99 11.87ZM35.31 10.42L35.31 10.42L35.31 10.42Q35.48 9.93 35.59 9.58L35.59 9.58L35.59 9.58Q35.71 9.24 35.79 9.04L35.79 9.04L35.79 9.04Q35.89 8.79 35.96 8.64L35.96 8.64L35.96 8.64Q36.04 8.42 36.14 8.20L36.14 8.20L36.14 8.20Q36.24 7.98 36.35 7.80L36.35 7.80L36.35 7.80Q36.46 7.62 36.56 7.49L36.56 7.49L36.56 7.49Q36.65 7.37 36.72 7.33L36.72 7.33L36.72 7.33Q36.78 7.30 36.98 7.33L36.98 7.33L36.98 7.33Q37.17 7.36 37.41 7.46L37.41 7.46L37.41 7.46Q37.65 7.56 37.86 7.74L37.86 7.74L37.86 7.74Q38.08 7.92 38.16 8.18L38.16 8.18L38.16 8.18Q38.24 8.49 38.21 9.00L38.21 9.00L38.21 9.00Q38.19 9.50 38.14 10.04L38.14 10.04L38.14 10.04Q38.09 10.57 38.07 11.05L38.07 11.05L38.07 11.05Q38.05 11.53 38.13 11.77L38.13 11.77L38.13 11.77Q38.19 11.91 38.24 12.04L38.24 12.04L38.24 12.04Q38.29 12.15 38.37 12.27L38.37 12.27L38.37 12.27Q38.45 12.39 38.54 12.47L38.54 12.47L38.54 12.47Q38.14 12.62 37.91 12.69L37.91 12.69L37.91 12.69Q37.67 12.77 37.54 12.80L37.54 12.80L37.54 12.80Q37.39 12.84 37.34 12.81L37.34 12.81L37.34 12.81Q37.23 12.77 37.13 12.61L37.13 12.61L37.13 12.61Q37.04 12.44 36.97 12.09L36.97 12.09L36.97 12.09Q36.94 11.98 36.96 11.70L36.96 11.70L36.96 11.70Q36.97 11.43 37.00 11.09L37.00 11.09L37.00 11.09Q37.02 10.75 37.05 10.37L37.05 10.37L37.05 10.37Q37.08 9.99 37.11 9.67L37.11 9.67L37.11 9.67Q37.13 9.34 37.14 9.09L37.14 9.09L37.14 9.09Q37.15 8.85 37.13 8.76L37.13 8.76L37.13 8.76Q37.06 8.53 36.94 8.43L36.94 8.43L36.94 8.43Q36.82 8.33 36.75 8.41L36.75 8.41L36.75 8.41Q36.59 8.61 36.39 9.11L36.39 9.11L36.39 9.11Q36.19 9.61 36.01 10.19L36.01 10.19L36.01 10.19Q35.83 10.77 35.70 11.35L35.70 11.35L35.70 11.35Q35.57 11.92 35.55 12.29L35.55 12.29L35.55 12.29Q35.55 12.37 35.42 12.46L35.42 12.46L35.42 12.46Q35.29 12.55 35.13 12.62L35.13 12.62L35.13 12.62Q34.97 12.69 34.82 12.71L34.82 12.71L34.82 12.71Q34.67 12.73 34.62 12.66L34.62 12.66L34.62 12.66Q34.58 12.62 34.45 12.47L34.45 12.47L34.45 12.47Q34.32 12.32 34.30 11.96L34.30 11.96L34.30 11.96Q34.28 11.62 34.30 11.03L34.30 11.03L34.30 11.03Q34.33 10.43 34.32 9.78L34.32 9.78L34.32 8.76L34.32 8.76Q34.32 8.15 34.31 7.06L34.31 7.06L34.31 7.06Q34.30 5.97 34.29 4.18L34.29 4.18L34.29 4.18Q34.44 4.10 34.56 4.04L34.56 4.04L34.56 4.04Q34.69 3.98 34.79 3.94L34.79 3.94L34.79 3.94Q34.92 3.88 35.03 3.86L35.03 3.86L35.03 3.86Q35.62 3.71 35.64 3.86L35.64 3.86L35.64 3.86Q35.66 3.99 35.62 4.73L35.62 4.73L35.62 4.73Q35.60 5.04 35.57 5.52L35.57 5.52L35.57 5.52Q35.55 6.00 35.51 6.69L35.51 6.69L35.51 6.69Q35.48 7.37 35.43 8.29L35.43 8.29L35.43 8.29Q35.38 9.21 35.31 10.42Z"></path></g><!----><g data-v-423bf9ae="" id="f2784ef4-1330-4dd7-9eb4-b10d489ac9bb" transform="matrix(1.0868111504448785,0,0,1.0868111504448785,-13.255261890115804,-0.23894260335429607)" stroke="none" fill="white"><g clip-rule="evenodd"><path d="M12.983 10.59l17.018 88.223-5.872-59.049 29.021-1.892-.054-9.883L64.549 1 53.622 18.977z"></path><path d="M59.389 54.548l5.16-53.541-8.74 39.716-19.612 1.045 1.57 20.462-7.766 36.583 12.057-39.899z"></path><path d="M62.8 67.182l.549-10.453-15.979 3.755-.032 11.797-17.337 26.532 21.68-27.616zM65.711 62.394l14.841-4.731 1.509-12.532-15.899 2.095zM72.07 44.502l10.988-1.417 1.581-10.278-8.079-.373L64.549 1l8.43 30.967z"></path><path d="M87.413 31.294l1.256-9.506-9.544-2.694L64.549 1l14.483 22.437-.422 7z"></path></g></g><!----><g data-v-423bf9ae="" id="1ccd54c4-26a2-412e-9a51-c7e9c1f63ff7" fill="white" transform="matrix(2.8500068409835144,0,0,2.8500068409835144,99.97638276997498,49.141472739493025)"><path d="M6.43 9.91C6.29 9.65 6.09 9.39 5.85 9.21C5.61 9.03 5.36 8.88 5.07 8.75C4.77 8.62 4.45 8.51 4.14 8.41C3.84 8.32 3.53 8.20 3.23 8.11C2.94 7.99 2.67 7.87 2.44 7.71C2.20 7.56 2.02 7.38 1.88 7.15C1.74 6.93 1.65 6.65 1.65 6.31C1.65 6.06 1.71 5.82 1.81 5.59C1.90 5.35 2.04 5.15 2.23 4.97C2.41 4.79 2.63 4.65 2.91 4.55C3.19 4.45 3.50 4.40 3.86 4.40C4.54 4.40 5.15 4.51 5.71 4.75C5.75 5.54 5.78 5.99 5.78 6.06C5.80 6.29 5.88 6.41 6.08 6.41L6.41 6.41L6.41 4.38C5.53 4.00 4.69 3.81 3.86 3.81C3.40 3.81 3.00 3.88 2.63 4.02C2.27 4.16 1.97 4.34 1.74 4.58C1.50 4.82 1.30 5.08 1.18 5.39C1.05 5.70 0.99 6.02 0.99 6.36C0.99 6.78 1.06 7.14 1.20 7.42C1.34 7.70 1.54 7.92 1.78 8.12C2.02 8.32 2.27 8.46 2.56 8.58C2.86 8.71 3.18 8.82 3.49 8.92C3.79 9.02 4.09 9.11 4.40 9.21C4.69 9.31 4.96 9.45 5.19 9.60C5.43 9.76 5.61 9.94 5.75 10.16C5.89 10.39 5.96 10.68 5.96 11.03C5.96 11.35 5.91 11.66 5.80 11.94C5.68 12.22 5.53 12.46 5.32 12.67C5.11 12.88 4.84 13.05 4.54 13.16C4.23 13.29 3.88 13.33 3.49 13.33C2.70 13.33 2.04 13.20 1.51 12.95C1.50 12.75 1.50 12.54 1.48 12.32C1.47 12.10 1.47 11.91 1.46 11.76C1.44 11.61 1.44 11.52 1.44 11.51C1.43 11.28 1.33 11.17 1.13 11.17L0.80 11.17L0.80 13.02L0.80 13.20L0.80 13.38C1.65 13.75 2.53 13.93 3.46 13.93C3.96 13.93 4.41 13.85 4.80 13.69C5.19 13.54 5.53 13.31 5.80 13.05C6.06 12.78 6.29 12.46 6.43 12.10C6.57 11.73 6.64 11.34 6.64 10.92C6.64 10.51 6.57 10.18 6.43 9.91ZM20.50 13.29L20.40 13.29L20.17 13.29C20.08 13.29 19.96 13.27 19.85 13.27L19.85 9.28C19.85 8.89 19.81 8.55 19.71 8.23C19.61 7.91 19.47 7.64 19.29 7.42C19.11 7.20 18.87 7.03 18.59 6.92C18.31 6.79 17.99 6.73 17.61 6.73C17.11 6.73 16.66 6.83 16.25 7.01C15.85 7.20 15.47 7.48 15.11 7.84L15.22 8.05C15.26 8.13 15.33 8.18 15.43 8.18C15.50 8.18 15.60 8.12 15.69 8.02C15.79 7.92 15.93 7.84 16.10 7.73C16.27 7.62 16.45 7.52 16.69 7.42C16.93 7.32 17.21 7.28 17.54 7.28C18.09 7.28 18.51 7.45 18.79 7.80C19.07 8.15 19.19 8.64 19.19 9.28L19.19 10.01C18.41 10.02 17.74 10.09 17.18 10.21C16.62 10.32 16.16 10.47 15.79 10.65C15.43 10.84 15.18 11.06 15.01 11.31C14.84 11.56 14.76 11.83 14.76 12.12C14.76 12.45 14.81 12.73 14.91 12.95C15.02 13.17 15.16 13.36 15.33 13.50C15.50 13.64 15.71 13.75 15.93 13.82C16.16 13.89 16.38 13.93 16.62 13.93C16.90 13.93 17.16 13.90 17.40 13.85C17.64 13.79 17.85 13.71 18.06 13.61C18.27 13.51 18.47 13.38 18.66 13.23C18.84 13.08 19.03 12.91 19.22 12.73L19.32 13.62C19.35 13.75 19.45 13.82 19.59 13.82L19.60 13.82L19.85 13.82L20.78 13.82L20.78 13.54C20.78 13.38 20.68 13.30 20.50 13.29ZM19.19 12.26C19.03 12.43 18.87 12.60 18.70 12.74C18.54 12.88 18.35 13.01 18.16 13.12C17.96 13.23 17.75 13.30 17.53 13.36C17.30 13.41 17.05 13.44 16.79 13.44C16.60 13.44 16.42 13.43 16.25 13.37C16.09 13.31 15.95 13.24 15.82 13.13C15.69 13.02 15.58 12.88 15.51 12.71C15.43 12.54 15.40 12.35 15.40 12.11C15.40 11.86 15.47 11.63 15.62 11.44C15.78 11.24 16.00 11.09 16.31 10.95C16.62 10.81 17.01 10.70 17.49 10.61C17.96 10.53 18.54 10.47 19.19 10.46ZM35.50 15.76L35.43 15.76C35.41 15.76 35.38 15.75 35.34 15.75L35.11 15.75C35.01 15.75 34.90 15.74 34.78 15.74L34.78 7.49L34.78 7.14C33.54 6.87 32.62 6.75 31.99 6.75C31.50 6.75 31.07 6.85 30.69 7.03C30.31 7.21 30.00 7.46 29.74 7.78C29.47 8.11 29.29 8.48 29.15 8.93C29.01 9.37 28.94 9.86 28.94 10.36C28.94 11.55 29.19 12.43 29.67 13.02C30.14 13.61 30.80 13.90 31.65 13.90C32.16 13.90 32.62 13.79 33.03 13.55C33.43 13.31 33.80 12.99 34.10 12.59L34.10 15.74C33.95 15.74 33.81 15.75 33.70 15.75C33.59 15.75 33.50 15.76 33.46 15.76L33.38 15.76C33.19 15.78 33.10 15.86 33.10 16.02L33.10 16.28L34.10 16.28L34.10 16.10L34.10 16.28L34.78 16.28L35.78 16.28L35.78 16.02C35.78 15.86 35.69 15.78 35.50 15.76ZM34.10 12.03C33.81 12.45 33.49 12.78 33.11 13.02C32.73 13.26 32.31 13.37 31.85 13.37C31.14 13.37 30.59 13.13 30.21 12.64C29.83 12.15 29.64 11.40 29.64 10.36C29.64 9.90 29.68 9.48 29.79 9.10C29.90 8.72 30.04 8.39 30.25 8.12C30.46 7.85 30.73 7.64 31.04 7.49C31.35 7.34 31.71 7.27 32.12 7.27C32.48 7.27 33.14 7.36 34.10 7.56ZM46.59 6.73C46.10 6.73 45.65 6.83 45.26 7.00C44.87 7.17 44.55 7.41 44.28 7.71C44.02 8.02 43.81 8.39 43.67 8.81C43.53 9.23 43.44 9.69 43.44 10.19C43.44 10.78 43.53 11.31 43.68 11.77C43.83 12.24 44.04 12.61 44.32 12.94C44.60 13.26 44.94 13.50 45.33 13.66C45.72 13.83 46.16 13.90 46.63 13.90C46.90 13.90 47.17 13.89 47.42 13.83C47.67 13.78 47.92 13.71 48.15 13.62C48.37 13.54 48.58 13.44 48.76 13.31C48.94 13.19 49.10 13.06 49.21 12.92L49.03 12.70C49 12.66 48.94 12.63 48.89 12.63C48.85 12.63 48.76 12.66 48.66 12.74C48.57 12.82 48.43 12.91 48.24 13.01C48.08 13.10 47.85 13.17 47.60 13.26C47.35 13.34 47.04 13.38 46.69 13.38C46.30 13.38 45.95 13.31 45.63 13.17C45.30 13.03 45.04 12.84 44.81 12.57C44.59 12.31 44.42 11.97 44.30 11.58C44.17 11.19 44.11 10.71 44.11 10.19L44.11 10.07L49.14 10.07C49.21 10.07 49.25 10.05 49.28 10.01C49.31 9.97 49.34 9.90 49.34 9.80C49.34 9.31 49.27 8.88 49.13 8.50C48.99 8.12 48.80 7.78 48.55 7.53C48.31 7.28 48.02 7.08 47.68 6.94C47.35 6.80 46.98 6.73 46.59 6.73ZM46.61 7.24C46.93 7.24 47.21 7.29 47.47 7.41C47.74 7.52 47.96 7.67 48.15 7.88C48.33 8.09 48.48 8.33 48.58 8.62C48.68 8.92 48.73 9.25 48.73 9.63L44.14 9.63C44.18 9.27 44.27 8.93 44.39 8.64C44.52 8.34 44.69 8.09 44.90 7.88C45.11 7.67 45.36 7.52 45.64 7.41C45.92 7.29 46.24 7.24 46.61 7.24ZM62.09 6.80C61.91 6.76 61.73 6.73 61.52 6.73C60.97 6.73 60.51 6.89 60.13 7.21C59.75 7.53 59.46 7.98 59.23 8.54L59.18 7.07C59.18 6.99 59.15 6.93 59.12 6.90C59.09 6.87 59.04 6.86 58.95 6.86L58.60 6.86L58.60 6.86L57.60 6.86L57.60 7.13C57.60 7.31 57.69 7.36 57.86 7.38C57.95 7.38 58.03 7.38 58.60 7.41L58.60 13.26C58.03 13.29 57.95 13.29 57.86 13.29C57.69 13.30 57.60 13.36 57.60 13.54L57.60 13.82L58.60 13.82L59.26 13.82L59.26 13.82L60.27 13.82L60.27 13.54C60.27 13.36 60.17 13.30 60.00 13.29C59.92 13.29 59.84 13.29 59.26 13.26L59.26 9.30C59.47 8.68 59.75 8.20 60.09 7.88C60.42 7.56 60.86 7.39 61.39 7.39C61.53 7.39 61.66 7.41 61.77 7.42C61.88 7.43 61.99 7.45 62.06 7.48C62.15 7.50 62.19 7.53 62.24 7.55C62.30 7.56 62.34 7.57 62.37 7.57C62.45 7.57 62.50 7.53 62.51 7.46L62.59 7.00C62.44 6.92 62.27 6.85 62.09 6.80Z"></path></g></svg>