<svg data-v-423bf9ae="" xmlns="http://www.w3.org/2000/svg" viewBox="0 0 182.05950447779566 181" class="iconAboveSlogan"><!----><!----><!----><g data-v-423bf9ae="" id="7ed49ee6-6fb0-4e07-8167-9d5d0184ebe5" fill="black" transform="matrix(6.86498873813172,0,0,6.86498873813172,-3.363841908961547,67.85126035374984)"><path d="M4.33 5.12L4.33 5.12Q6.59 5.12 7.67 6.22L7.67 6.22L7.67 6.22Q8.75 7.32 8.75 9.24L8.75 9.24L8.75 9.24Q8.75 11.23 7.72 12.47L7.72 12.47L7.72 12.47Q6.69 13.72 4.59 13.72L4.59 13.72L0.50 13.72L0.50 13.09L1.68 12.75L1.68 6.08L0.49 5.75L0.49 5.12L4.33 5.12ZM4.31 5.99L4.31 5.99Q3.91 5.99 3.57 6.08L3.57 6.08L3.57 12.75L3.57 12.75Q4.10 12.92 4.66 12.92L4.66 12.92L4.66 12.92Q5.87 12.92 6.31 11.92L6.31 11.92L6.31 11.92Q6.76 10.92 6.76 9.24L6.76 9.24L6.76 9.24Q6.76 8.29 6.46 7.55L6.46 7.55L6.46 7.55Q6.16 6.82 5.61 6.41L5.61 6.41L5.61 6.41Q5.05 5.99 4.31 5.99L4.31 5.99ZM12.43 7.76L12.43 7.76Q11.90 7.76 11.42 7.92L11.42 7.92L11.12 9.10L10.29 9.10L10.05 7.21L10.05 7.21Q11.45 6.69 12.95 6.69L12.95 6.69L12.95 6.69Q14.08 6.69 14.65 7.07L14.65 7.07L14.65 7.07Q15.22 7.45 15.22 8.44L15.22 8.44L15.22 12.56L16.31 12.95L16.31 13.55L16.31 13.55Q15.75 13.69 15.44 13.74L15.44 13.74L15.44 13.74Q15.13 13.79 14.77 13.79L14.77 13.79L14.77 13.79Q14.28 13.79 13.88 13.60L13.88 13.60L13.88 13.60Q13.48 13.41 13.37 13.05L13.37 13.05L13.37 13.05Q12.81 13.47 12.33 13.66L12.33 13.66L12.33 13.66Q11.86 13.86 11.30 13.86L11.30 13.86L11.30 13.86Q10.53 13.86 10.09 13.40L10.09 13.40L10.09 13.40Q9.65 12.94 9.65 12.14L9.65 12.14L9.65 12.14Q9.65 11.47 10.06 10.89L10.06 10.89L10.06 10.89Q10.47 10.30 11.44 10.11L11.44 10.11L13.33 9.72L13.33 8.74L13.33 8.74Q13.33 8.19 13.13 7.97L13.13 7.97L13.13 7.97Q12.92 7.76 12.43 7.76L12.43 7.76ZM12.49 10.74L12.49 10.74Q11.94 10.88 11.72 11.17L11.72 11.17L11.72 11.17Q11.49 11.47 11.49 11.94L11.49 11.94L11.49 11.94Q11.49 12.73 12.22 12.73L12.22 12.73L12.22 12.73Q12.49 12.73 12.80 12.61L12.80 12.61L12.80 12.61Q13.12 12.49 13.33 12.35L13.33 12.35L13.33 10.53L12.49 10.74ZM20.64 7.88L20.64 7.88Q20.09 7.88 19.73 8.11L19.73 8.11L19.73 12.74L21.35 13.02L21.35 13.72L16.74 13.72L16.74 13.02L17.84 12.74L17.84 8.06L16.74 7.91L16.74 7.24L19.10 6.69L19.73 6.69L19.73 7.34L19.73 7.34Q20.19 7.03 20.76 6.84L20.76 6.84L20.76 6.84Q21.34 6.65 21.81 6.65L21.81 6.65L21.81 6.65Q22.13 6.65 22.22 6.66L22.22 6.66L21.95 9.17L20.93 9.17L20.64 7.88ZM26.81 13.54L26.81 13.54Q26.38 13.68 25.79 13.76L25.79 13.76L25.79 13.76Q25.21 13.85 24.81 13.85L24.81 13.85L24.81 13.85Q24.08 13.85 23.82 13.54L23.82 13.54L23.82 13.54Q23.56 13.24 23.56 12.75L23.56 12.75L23.56 7.84L22.55 7.84L22.55 7.18L23.72 6.66L24.57 5.26L25.42 5.26L25.42 6.83L27.01 6.83L27.01 7.92L25.42 7.83L25.42 12.53L26.81 12.84L26.81 13.54Z"></path></g><!----><g data-v-423bf9ae="" id="48d9c529-ca92-413a-873d-acdc08af4a01" transform="matrix(1.071242150809792,0,0,1.071242150809792,38.42922427682827,-7.5681885881279385)" stroke="none" fill="black"><path d="M52.135 49.287a2.256 2.256 0 0 0-1.426-1.423L26.847 39.91a2.256 2.256 0 0 0-2.305.542l-7.954 7.956a2.252 2.252 0 0 0 .879 3.725l22.798 7.596 7.598 22.803A2.256 2.256 0 0 0 50 84.071c.588 0 1.164-.234 1.589-.659l7.959-7.954a2.258 2.258 0 0 0 .542-2.305l-7.955-23.866zm-1.153 28.367L44.18 57.239a2.258 2.258 0 0 0-1.426-1.421l-20.41-6.802 4.397-4.399 21.477 7.16 7.163 21.479-4.399 4.398z"></path><path d="M68.043 33.377a2.26 2.26 0 0 0-1.421-1.424l-23.867-7.954a2.268 2.268 0 0 0-2.3.545l-7.959 7.954a2.248 2.248 0 0 0 .879 3.725l22.803 7.598 7.598 22.798a2.245 2.245 0 0 0 2.134 1.538c.591 0 1.165-.229 1.592-.659l7.954-7.954a2.258 2.258 0 0 0 .542-2.305l-7.955-23.862zm-1.152 28.364l-6.802-20.41a2.262 2.262 0 0 0-1.421-1.421l-20.415-6.805 4.399-4.396 21.479 7.158 7.158 21.477-4.398 4.397z"></path><path d="M83.956 17.469a2.254 2.254 0 0 0-1.426-1.426L58.668 8.089a2.267 2.267 0 0 0-2.305.544l-7.954 7.957a2.24 2.24 0 0 0-.601 2.104 2.254 2.254 0 0 0 1.479 1.621l22.798 7.598 7.598 22.798a2.258 2.258 0 0 0 2.137 1.538c.588 0 1.164-.232 1.589-.659l7.954-7.954a2.253 2.253 0 0 0 .547-2.305l-7.954-23.862zm-1.152 28.364l-6.807-20.41a2.26 2.26 0 0 0-1.421-1.424l-20.412-6.804 4.399-4.397 21.477 7.161 7.158 21.477-4.394 4.397zM35.68 64.319a2.252 2.252 0 0 0-3.184 0L8.634 88.182a2.252 2.252 0 0 0 3.184 3.184L35.68 67.498a2.246 2.246 0 0 0 0-3.179zM15.792 71.478l7.954-7.954c.879-.879.879-2.305 0-3.184s-2.3-.879-3.179 0l-7.954 7.954a2.252 2.252 0 0 0 1.59 3.843c.576 0 1.15-.22 1.589-.659zM36.476 76.248l-7.954 7.959a2.246 2.246 0 0 0 0 3.179c.439.439 1.014.659 1.59.659s1.149-.22 1.589-.659l7.959-7.954a2.252 2.252 0 0 0-3.184-3.184z"></path></g><!----><g data-v-423bf9ae="" id="82c4c7da-bca7-4032-b801-368fdb55640d" fill="black" transform="matrix(0.5094188330301544,0,0,0.5094188330301544,24.134868210465072,204.21191324054442)"><path d="M0.83 10.82L0.83 10.82L0.83 10.82Q0.83 10.53 1.02 10.53L1.02 10.53L1.02 10.53Q1.20 10.53 1.25 10.67L1.25 10.67L1.25 10.67Q1.39 11.00 1.51 11.25L1.51 11.25L1.51 11.25Q1.62 11.49 1.89 11.85L1.89 11.85L1.89 11.85Q2.16 12.21 2.46 12.44L2.46 12.44L2.46 12.44Q2.77 12.67 3.25 12.84L3.25 12.84L3.25 12.84Q3.74 13.01 4.31 13.01L4.31 13.01L4.31 13.01Q5.36 13.01 6.00 12.45L6.00 12.45L6.00 12.45Q6.64 11.90 6.64 11.00L6.64 11.00L6.64 11.00Q6.64 10.35 6.20 9.90L6.20 9.90L6.20 9.90Q5.77 9.46 5.21 9.27L5.21 9.27L5.21 9.27Q4.65 9.09 3.79 8.77L3.79 8.77L3.79 8.77Q2.93 8.46 2.38 8.13L2.38 8.13L2.38 8.13Q1.11 7.38 1.11 6.08L1.11 6.08L1.11 6.08Q1.11 4.83 2.01 4.08L2.01 4.08L2.01 4.08Q2.91 3.33 4.35 3.33L4.35 3.33L4.35 3.33Q4.89 3.33 5.62 3.56L5.62 3.56L5.62 3.56Q6.36 3.79 6.37 3.79L6.37 3.79L6.37 3.79Q6.41 3.79 6.52 3.74L6.52 3.74L6.52 3.74Q6.64 3.68 6.69 3.68L6.69 3.68L6.69 3.68Q6.87 3.68 6.90 3.79L6.90 3.79L6.90 3.79Q7.20 5.49 7.20 5.70L7.20 5.70L7.20 5.70Q7.20 6.09 7 6.09L7 6.09L7 6.09Q6.87 6.09 6.80 5.89L6.80 5.89L6.80 5.89Q6.64 5.49 6.48 5.24L6.48 5.24L6.48 5.24Q6.31 4.98 6.24 4.91L6.24 4.91L6.24 4.91Q6.17 4.84 5.88 4.58L5.88 4.58L5.88 4.58Q5.12 3.91 4.05 3.91L4.05 3.91L4.05 3.91Q3.18 3.91 2.59 4.33L2.59 4.33L2.59 4.33Q2.00 4.75 2.00 5.46L2.00 5.46L2.00 5.46Q2.00 6.09 2.35 6.50L2.35 6.50L2.35 6.50Q2.69 6.90 3.26 7.13L3.26 7.13L3.26 7.13Q3.84 7.35 4.47 7.55L4.47 7.55L4.47 7.55Q5.10 7.74 5.80 8.09L5.80 8.09L5.80 8.09Q6.51 8.44 6.97 8.93L6.97 8.93L6.97 8.93Q7.53 9.53 7.53 10.43L7.53 10.43L7.53 10.43Q7.53 11.90 6.59 12.76L6.59 12.76L6.59 12.76Q5.66 13.62 4.27 13.62L4.27 13.62L4.27 13.62Q3.30 13.62 2.72 13.52L2.72 13.52L2.72 13.52Q2.13 13.41 1.51 13.09L1.51 13.09L1.51 13.09Q1.33 12.98 1.08 12.00L1.08 12.00L1.08 12.00Q0.83 11.02 0.83 10.82ZM15.62 3.72L15.62 3.72L15.62 3.72Q15.62 3.50 15.95 3.50L15.95 3.50L15.95 3.50Q15.99 3.50 16.10 3.49L16.10 3.49L16.10 3.49Q16.21 3.49 16.46 3.49L16.46 3.49L16.46 3.49Q16.53 3.49 16.85 3.51L16.85 3.51L16.85 3.51Q17.16 3.53 17.30 3.53L17.30 3.53L17.30 3.53Q17.61 3.53 18.49 3.51L18.49 3.51L18.49 3.51Q19.38 3.49 19.61 3.49L19.61 3.49L19.61 3.49Q20.93 3.49 21.88 4.15L21.88 4.15L21.88 4.15Q22.83 4.82 22.83 6.06L22.83 6.06L22.83 6.06Q22.83 6.75 22.58 7.29L22.58 7.29L22.58 7.29Q22.33 7.83 21.97 8.13L21.97 8.13L21.97 8.13Q21.62 8.44 21.18 8.64L21.18 8.64L21.18 8.64Q20.73 8.85 20.39 8.91L20.39 8.91L20.39 8.91Q20.05 8.97 19.78 8.97L19.78 8.97L19.78 8.97Q19.33 8.97 18.87 8.87L18.87 8.87L18.87 8.87Q18.41 8.76 18.41 8.65L18.41 8.65L18.41 8.65Q18.41 8.44 18.59 8.44L18.59 8.44L18.59 8.44Q18.66 8.44 18.88 8.50L18.88 8.50L18.88 8.50Q19.10 8.55 19.31 8.55L19.31 8.55L19.31 8.55Q19.63 8.55 19.99 8.46L19.99 8.46L19.99 8.46Q20.36 8.37 20.75 8.17L20.75 8.17L20.75 8.17Q21.14 7.97 21.39 7.55L21.39 7.55L21.39 7.55Q21.64 7.14 21.64 6.59L21.64 6.59L21.64 6.59Q21.64 5.66 20.89 4.85L20.89 4.85L20.89 4.85Q20.13 4.05 18.80 4.05L18.80 4.05L18.80 4.05Q18.37 4.05 18.21 4.30L18.21 4.30L18.21 4.30Q18.06 4.56 18.06 5.47L18.06 5.47L18.06 5.47Q18.06 8.39 18.05 8.80L18.05 8.80L18.05 8.80Q18.03 9.21 18.03 11.26L18.03 11.26L18.03 11.26Q18.03 12.49 18.61 12.87L18.61 12.87L18.61 12.87Q18.76 12.96 18.99 12.99L18.99 12.99L18.99 12.99Q19.22 13.02 19.38 13.01L19.38 13.01L19.38 13.01Q19.53 13.01 19.65 13.07L19.65 13.07L19.65 13.07Q19.77 13.13 19.77 13.30L19.77 13.30L19.77 13.30Q19.77 13.54 19.45 13.54L19.45 13.54L19.45 13.54Q19.12 13.54 18.31 13.50L18.31 13.50L18.31 13.50Q17.50 13.47 17.44 13.47L17.44 13.47L17.44 13.47Q17.30 13.47 16.89 13.50L16.89 13.50L16.89 13.50Q16.48 13.52 16.14 13.52L16.14 13.52L16.14 13.52Q15.71 13.52 15.71 13.37L15.71 13.37L15.71 13.37Q15.71 13.29 15.73 13.23L15.73 13.23L15.73 13.23Q15.75 13.17 15.77 13.14L15.77 13.14L15.77 13.14Q15.79 13.10 15.86 13.08L15.86 13.08L15.86 13.08Q15.93 13.05 15.96 13.03L15.96 13.03L15.96 13.03Q15.99 13.02 16.09 13.00L16.09 13.00L16.09 13.00Q16.20 12.98 16.24 12.96L16.24 12.96L16.24 12.96Q16.27 12.95 16.32 12.94L16.32 12.94L16.32 12.94Q16.38 12.94 16.40 12.93L16.40 12.93L16.40 12.93Q16.42 12.92 16.47 12.89L16.47 12.89L16.47 12.89Q16.52 12.85 16.55 12.79L16.55 12.79L16.55 12.79Q16.58 12.73 16.63 12.62L16.63 12.62L16.63 12.62Q16.67 12.52 16.73 12.35L16.73 12.35L16.73 12.35Q16.83 12.08 16.88 10.25L16.88 10.25L16.88 10.25Q16.94 8.41 16.94 7.41L16.94 7.41L16.94 7.41Q16.94 6.54 16.93 5.80L16.93 5.80L16.93 5.80Q16.93 5.07 16.93 5.03L16.93 5.03L16.93 5.03Q16.93 4.65 16.69 4.28L16.69 4.28L16.69 4.28Q16.45 3.91 15.90 3.91L15.90 3.91L15.90 3.91Q15.62 3.91 15.62 3.72ZM30.52 3.65L30.52 3.65L30.52 3.65Q30.52 3.46 30.91 3.46L30.91 3.46L30.91 3.46Q30.97 3.46 31.09 3.47L31.09 3.47L31.09 3.47Q31.22 3.49 31.29 3.49L31.29 3.49L31.29 3.49Q31.33 3.49 32.61 3.52L32.61 3.52L32.61 3.52Q33.88 3.56 34.71 3.56L34.71 3.56L34.71 3.56Q35 3.56 36.16 3.53L36.16 3.53L36.16 3.53Q37.31 3.50 37.51 3.50L37.51 3.50L37.51 3.50Q37.77 3.50 37.77 3.82L37.77 3.82L37.77 3.82Q37.77 3.91 37.69 4.38L37.69 4.38L37.69 4.38Q37.60 4.84 37.60 5.25L37.60 5.25L37.60 5.25Q37.60 5.38 37.53 5.47L37.53 5.47L37.53 5.47Q37.46 5.56 37.38 5.56L37.38 5.56L37.38 5.56Q37.17 5.56 37.17 5.26L37.17 5.26L37.17 5.26Q37.17 4.89 36.93 4.58L36.93 4.58L36.93 4.58Q36.69 4.27 36.34 4.26L36.34 4.26L36.34 4.26Q35.08 4.16 34.41 4.16L34.41 4.16L34.05 4.16L34.05 4.16Q33.32 4.16 33.20 4.26L33.20 4.26L33.20 4.26Q33.08 4.37 33.05 5.01L33.05 5.01L33.05 5.01Q33.00 6.02 33.00 7.35L33.00 7.35L33.00 7.35Q33.00 8.05 33.26 8.06L33.26 8.06L33.61 8.06L34.20 8.06L34.64 8.06L34.64 8.06Q35.48 8.06 35.76 8.01L35.76 8.01L35.76 8.01Q36.04 7.95 36.26 7.80L36.26 7.80L36.26 7.80Q36.53 7.62 36.58 7.28L36.58 7.28L36.58 7.28Q36.62 7.04 36.78 7.04L36.78 7.04L36.78 7.04Q36.90 7.04 36.93 7.08L36.93 7.08L36.93 7.08Q36.96 7.13 36.96 7.27L36.96 7.27L36.96 7.27Q36.96 7.36 36.90 7.91L36.90 7.91L36.90 7.91Q36.85 8.46 36.85 8.74L36.85 8.74L36.85 8.74Q36.85 9.00 36.87 9.24L36.87 9.24L36.87 9.24Q36.89 9.48 36.89 9.59L36.89 9.59L36.89 9.59Q36.89 9.94 36.79 9.94L36.79 9.94L36.79 9.94Q36.58 9.94 36.48 9.60L36.48 9.60L36.48 9.60Q36.29 9.02 36.13 8.92L36.13 8.92L36.13 8.92Q35.84 8.72 34.79 8.72L34.79 8.72L34.79 8.72Q34.37 8.72 34.11 8.72L34.11 8.72L34.11 8.72Q33.85 8.72 33.77 8.71L33.77 8.71L33.77 8.71Q33.70 8.71 33.65 8.71L33.65 8.71L33.65 8.71Q33.60 8.71 33.56 8.71L33.56 8.71L33.56 8.71Q32.98 8.71 32.98 8.97L32.98 8.97L32.98 8.97Q32.98 9.38 32.97 9.99L32.97 9.99L32.97 9.99Q32.96 10.60 32.96 10.99L32.96 10.99L32.96 11.55L32.96 11.55Q32.96 12.56 33.29 12.66L33.29 12.66L33.29 12.66Q33.64 12.77 33.89 12.77L33.89 12.77L33.89 12.77Q34.94 12.77 35.73 12.67L35.73 12.67L35.73 12.67Q36.53 12.57 36.92 12.42L36.92 12.42L36.92 12.42Q37.32 12.28 37.59 12.10L37.59 12.10L37.59 12.10Q37.86 11.93 37.93 11.78L37.93 11.78L37.93 11.78Q38.01 11.63 38.09 11.54L38.09 11.54L38.09 11.54Q38.16 11.44 38.25 11.44L38.25 11.44L38.25 11.44Q38.42 11.44 38.42 11.68L38.42 11.68L38.42 11.68Q38.42 12.28 37.81 12.89L37.81 12.89L37.81 12.89Q37.21 13.51 36.76 13.51L36.76 13.51L36.76 13.51Q35.76 13.51 34.49 13.44L34.49 13.44L34.49 13.44Q33.22 13.37 32.91 13.37L32.91 13.37L32.91 13.37Q32.52 13.37 31.93 13.43L31.93 13.43L31.93 13.43Q31.35 13.50 31.01 13.50L31.01 13.50L31.01 13.50Q30.72 13.50 30.72 13.36L30.72 13.36L30.72 13.36Q30.72 13.23 30.72 13.19L30.72 13.19L30.72 13.19Q30.72 13.15 30.76 13.12L30.76 13.12L30.76 13.12Q30.80 13.09 30.85 13.08L30.85 13.08L30.85 13.08Q30.90 13.08 31.03 13.03L31.03 13.03L31.03 13.03Q31.16 12.99 31.32 12.92L31.32 12.92L31.32 12.92Q31.65 12.75 31.76 12.26L31.76 12.26L31.76 12.26Q31.86 11.77 31.86 10.21L31.86 10.21L31.86 8.47L31.86 8.47Q31.86 8.09 31.88 7.29L31.88 7.29L31.88 7.29Q31.91 6.50 31.91 6.05L31.91 6.05L31.91 6.05Q31.91 5.67 31.88 4.77L31.88 4.77L31.88 4.77Q31.86 4.37 31.53 4.14L31.53 4.14L31.53 4.14Q31.19 3.92 30.74 3.91L30.74 3.91L30.74 3.91Q30.52 3.91 30.52 3.65ZM45.98 3.65L45.98 3.65L45.98 3.65Q45.98 3.46 46.37 3.46L46.37 3.46L46.37 3.46Q46.42 3.46 46.55 3.47L46.55 3.47L46.55 3.47Q46.68 3.49 46.75 3.49L46.75 3.49L46.75 3.49Q46.79 3.49 48.06 3.52L48.06 3.52L48.06 3.52Q49.34 3.56 50.16 3.56L50.16 3.56L50.16 3.56Q50.46 3.56 51.61 3.53L51.61 3.53L51.61 3.53Q52.77 3.50 52.96 3.50L52.96 3.50L52.96 3.50Q53.23 3.50 53.23 3.82L53.23 3.82L53.23 3.82Q53.23 3.91 53.14 4.38L53.14 4.38L53.14 4.38Q53.06 4.84 53.06 5.25L53.06 5.25L53.06 5.25Q53.06 5.38 52.99 5.47L52.99 5.47L52.99 5.47Q52.92 5.56 52.84 5.56L52.84 5.56L52.84 5.56Q52.63 5.56 52.63 5.26L52.63 5.26L52.63 5.26Q52.63 4.89 52.39 4.58L52.39 4.58L52.39 4.58Q52.15 4.27 51.80 4.26L51.80 4.26L51.80 4.26Q50.54 4.16 49.87 4.16L49.87 4.16L49.50 4.16L49.50 4.16Q48.78 4.16 48.66 4.26L48.66 4.26L48.66 4.26Q48.54 4.37 48.51 5.01L48.51 5.01L48.51 5.01Q48.45 6.02 48.45 7.35L48.45 7.35L48.45 7.35Q48.45 8.05 48.72 8.06L48.72 8.06L49.07 8.06L49.66 8.06L50.09 8.06L50.09 8.06Q50.93 8.06 51.21 8.01L51.21 8.01L51.21 8.01Q51.49 7.95 51.72 7.80L51.72 7.80L51.72 7.80Q51.98 7.62 52.04 7.28L52.04 7.28L52.04 7.28Q52.08 7.04 52.23 7.04L52.23 7.04L52.23 7.04Q52.36 7.04 52.39 7.08L52.39 7.08L52.39 7.08Q52.42 7.13 52.42 7.27L52.42 7.27L52.42 7.27Q52.42 7.36 52.36 7.91L52.36 7.91L52.36 7.91Q52.30 8.46 52.30 8.74L52.30 8.74L52.30 8.74Q52.30 9.00 52.32 9.24L52.32 9.24L52.32 9.24Q52.35 9.48 52.35 9.59L52.35 9.59L52.35 9.59Q52.35 9.94 52.25 9.94L52.25 9.94L52.25 9.94Q52.04 9.94 51.94 9.60L51.94 9.60L51.94 9.60Q51.74 9.02 51.59 8.92L51.59 8.92L51.59 8.92Q51.30 8.72 50.25 8.72L50.25 8.72L50.25 8.72Q49.83 8.72 49.57 8.72L49.57 8.72L49.57 8.72Q49.31 8.72 49.23 8.71L49.23 8.71L49.23 8.71Q49.15 8.71 49.10 8.71L49.10 8.71L49.10 8.71Q49.06 8.71 49.01 8.71L49.01 8.71L49.01 8.71Q48.44 8.71 48.44 8.97L48.44 8.97L48.44 8.97Q48.44 9.38 48.43 9.99L48.43 9.99L48.43 9.99Q48.41 10.60 48.41 10.99L48.41 10.99L48.41 11.55L48.41 11.55Q48.41 12.56 48.75 12.66L48.75 12.66L48.75 12.66Q49.10 12.77 49.35 12.77L49.35 12.77L49.35 12.77Q50.40 12.77 51.19 12.67L51.19 12.67L51.19 12.67Q51.98 12.57 52.38 12.42L52.38 12.42L52.38 12.42Q52.78 12.28 53.05 12.10L53.05 12.10L53.05 12.10Q53.31 11.93 53.39 11.78L53.39 11.78L53.39 11.78Q53.47 11.63 53.54 11.54L53.54 11.54L53.54 11.54Q53.62 11.44 53.70 11.44L53.70 11.44L53.70 11.44Q53.87 11.44 53.87 11.68L53.87 11.68L53.87 11.68Q53.87 12.28 53.27 12.89L53.27 12.89L53.27 12.89Q52.67 13.51 52.22 13.51L52.22 13.51L52.22 13.51Q51.21 13.51 49.95 13.44L49.95 13.44L49.95 13.44Q48.68 13.37 48.37 13.37L48.37 13.37L48.37 13.37Q47.98 13.37 47.39 13.43L47.39 13.43L47.39 13.43Q46.80 13.50 46.47 13.50L46.47 13.50L46.47 13.50Q46.17 13.50 46.17 13.36L46.17 13.36L46.17 13.36Q46.17 13.23 46.17 13.19L46.17 13.19L46.17 13.19Q46.17 13.15 46.21 13.12L46.21 13.12L46.21 13.12Q46.26 13.09 46.30 13.08L46.30 13.08L46.30 13.08Q46.35 13.08 46.49 13.03L46.49 13.03L46.49 13.03Q46.62 12.99 46.77 12.92L46.77 12.92L46.77 12.92Q47.11 12.75 47.21 12.26L47.21 12.26L47.21 12.26Q47.32 11.77 47.32 10.21L47.32 10.21L47.32 8.47L47.32 8.47Q47.32 8.09 47.34 7.29L47.34 7.29L47.34 7.29Q47.36 6.50 47.36 6.05L47.36 6.05L47.36 6.05Q47.36 5.67 47.33 4.77L47.33 4.77L47.33 4.77Q47.32 4.37 46.98 4.14L46.98 4.14L46.98 4.14Q46.65 3.92 46.20 3.91L46.20 3.91L46.20 3.91Q45.98 3.91 45.98 3.65ZM61.43 3.64L61.43 3.64L61.43 3.64Q61.43 3.51 61.55 3.49L61.55 3.49L61.55 3.49Q61.67 3.47 62.15 3.47L62.15 3.47L63.36 3.47L63.36 3.47Q63.71 3.47 64.65 3.44L64.65 3.44L64.65 3.44Q65.59 3.42 66.09 3.42L66.09 3.42L66.09 3.42Q67.06 3.42 68.03 3.71L68.03 3.71L68.03 3.71Q68.99 4.00 69.80 4.56L69.80 4.56L69.80 4.56Q70.62 5.11 71.12 6.00L71.12 6.00L71.12 6.00Q71.62 6.89 71.62 7.98L71.62 7.98L71.62 7.98Q71.62 8.96 71.49 9.68L71.49 9.68L71.49 9.68Q71.36 10.40 71.05 10.93L71.05 10.93L71.05 10.93Q70.74 11.45 70.43 11.78L70.43 11.78L70.43 11.78Q70.13 12.11 69.59 12.56L69.59 12.56L69.59 12.56Q69.17 12.89 68.38 13.19L68.38 13.19L68.38 13.19Q67.58 13.48 66.74 13.48L66.74 13.48L66.74 13.48Q66.65 13.48 65.31 13.45L65.31 13.45L65.31 13.45Q63.97 13.41 63.38 13.41L63.38 13.41L63.38 13.41Q62.89 13.41 62.47 13.45L62.47 13.45L62.47 13.45Q62.05 13.48 61.98 13.48L61.98 13.48L61.98 13.48Q61.64 13.48 61.64 13.30L61.64 13.30L61.64 13.30Q61.64 13.19 61.69 13.14L61.69 13.14L61.69 13.14Q61.74 13.09 61.90 13.05L61.90 13.05L61.90 13.05Q62.06 13.01 62.13 12.98L62.13 12.98L62.13 12.98Q62.36 12.88 62.55 12.61L62.55 12.61L62.55 12.61Q62.73 12.33 62.73 12.07L62.73 12.07L62.73 12.07Q62.73 11.28 62.74 10.07L62.74 10.07L62.74 10.07Q62.75 8.85 62.75 8.27L62.75 8.27L62.75 8.27Q62.75 7.77 62.74 6.70L62.74 6.70L62.74 6.70Q62.73 5.63 62.73 4.72L62.73 4.72L62.73 4.72Q62.73 4.48 62.50 4.23L62.50 4.23L62.50 4.23Q62.27 3.99 61.99 3.98L61.99 3.98L61.99 3.98Q61.80 3.96 61.70 3.95L61.70 3.95L61.70 3.95Q61.61 3.93 61.52 3.86L61.52 3.86L61.52 3.86Q61.43 3.78 61.43 3.64ZM63.91 11.47L63.91 11.47L63.91 11.47Q63.91 11.73 63.92 11.90L63.92 11.90L63.92 11.90Q63.92 12.07 63.97 12.21L63.97 12.21L63.97 12.21Q64.02 12.35 64.05 12.40L64.05 12.40L64.05 12.40Q64.08 12.46 64.22 12.53L64.22 12.53L64.22 12.53Q64.36 12.60 64.44 12.62L64.44 12.62L64.44 12.62Q64.51 12.64 64.76 12.71L64.76 12.71L64.76 12.71Q65.02 12.78 65.18 12.82L65.18 12.82L65.18 12.82Q65.67 12.96 66.21 12.96L66.21 12.96L66.49 12.96L66.49 12.96Q67.44 12.96 68.11 12.69L68.11 12.69L68.11 12.69Q68.78 12.42 69.40 11.83L69.40 11.83L69.40 11.83Q70.43 10.84 70.43 8.61L70.43 8.61L70.43 8.61Q70.43 7.49 69.99 6.58L69.99 6.58L69.99 6.58Q69.55 5.67 68.84 5.13L68.84 5.13L68.84 5.13Q68.12 4.59 67.30 4.30L67.30 4.30L67.30 4.30Q66.47 4.02 65.63 4.02L65.63 4.02L65.63 4.02Q65.25 4.02 65.08 4.02L65.08 4.02L65.08 4.02Q64.90 4.02 64.67 4.05L64.67 4.05L64.67 4.05Q64.44 4.09 64.36 4.11L64.36 4.11L64.36 4.11Q64.29 4.13 64.18 4.25L64.18 4.25L64.18 4.25Q64.06 4.37 64.04 4.45L64.04 4.45L64.04 4.45Q64.02 4.54 63.99 4.78L63.99 4.78L63.99 4.78Q63.95 5.03 63.95 5.21L63.95 5.21L63.95 5.21Q63.95 5.39 63.95 5.80L63.95 5.80L63.95 5.80Q63.95 6.10 63.94 7.24L63.94 7.24L63.94 7.24Q63.92 8.39 63.92 8.48L63.92 8.48L63.92 8.48Q63.92 9.32 63.92 10.30L63.92 10.30L63.92 10.30Q63.91 11.28 63.91 11.47ZM104.05 10.05L104.05 10.05L104.05 10.05Q104.05 9.58 104.21 9.06L104.21 9.06L104.21 9.06Q104.37 8.55 104.61 8.25L104.61 8.25L104.61 8.25Q104.94 7.84 105.37 7.62L105.37 7.62L105.37 7.62Q105.80 7.39 106.06 7.34L106.06 7.34L106.06 7.34Q106.32 7.28 106.32 7.25L106.32 7.25L106.32 7.25Q106.32 7.21 106.15 7.01L106.15 7.01L106.15 7.01Q105.98 6.80 105.81 6.39L105.81 6.39L105.81 6.39Q105.64 5.98 105.64 5.45L105.64 5.45L105.64 5.45Q105.64 4.52 106.46 4.05L106.46 4.05L106.46 4.05Q107.27 3.58 108.28 3.58L108.28 3.58L108.28 3.58Q108.77 3.58 109.20 3.74L109.20 3.74L109.20 3.74Q109.63 3.91 109.69 3.91L109.69 3.91L109.69 3.91Q109.75 3.91 109.84 3.88L109.84 3.88L109.84 3.88Q109.93 3.86 110.00 3.86L110.00 3.86L110.00 3.86Q110.22 3.86 110.22 4.19L110.22 4.19L110.22 4.19Q110.22 4.20 110.24 4.38L110.24 4.38L110.24 4.38Q110.25 4.55 110.26 4.77L110.26 4.77L110.26 4.77Q110.28 5.00 110.28 5.14L110.28 5.14L110.28 5.14Q110.28 5.54 110.26 5.63L110.26 5.63L110.26 5.63Q110.24 5.71 110.12 5.71L110.12 5.71L110.12 5.71Q110.04 5.71 109.83 5.46L109.83 5.46L109.83 5.46Q109.62 5.21 109.38 4.91L109.38 4.91L109.38 4.91Q109.14 4.61 108.75 4.35L108.75 4.35L108.75 4.35Q108.35 4.10 107.93 4.10L107.93 4.10L107.93 4.10Q107.27 4.10 106.95 4.44L106.95 4.44L106.95 4.44Q106.62 4.79 106.62 5.18L106.62 5.18L106.62 5.18Q106.62 5.53 107.01 6.08L107.01 6.08L107.01 6.08Q107.39 6.64 107.79 7.06L107.79 7.06L107.79 7.06Q108.19 7.48 108.92 8.20L108.92 8.20L108.92 8.20Q109.97 9.25 110.95 10.09L110.95 10.09L110.95 10.09Q111.93 10.93 112.06 10.93L112.06 10.93L112.06 10.93Q112.14 10.93 112.22 10.81L112.22 10.81L112.22 10.81Q112.31 10.70 112.36 10.42L112.36 10.42L112.36 10.42Q112.42 10.14 112.42 9.76L112.42 9.76L112.42 9.76Q112.42 9.24 112.27 8.93L112.27 8.93L112.27 8.93Q112.13 8.61 112.01 8.53L112.01 8.53L112.01 8.53Q111.90 8.46 111.62 8.32L111.62 8.32L111.62 8.32Q111.52 8.27 111.38 8.26L111.38 8.26L111.38 8.26Q111.23 8.25 111.16 8.21L111.16 8.21L111.16 8.21Q111.09 8.18 111.09 8.06L111.09 8.06L111.09 8.06Q111.09 7.97 111.15 7.94L111.15 7.94L111.15 7.94Q111.22 7.91 111.44 7.91L111.44 7.91L111.44 7.91Q111.73 7.91 112.09 7.92L112.09 7.92L112.09 7.92Q112.45 7.94 113.53 7.94L113.53 7.94L113.53 7.94Q113.79 7.94 113.79 8.12L113.79 8.12L113.79 8.12Q113.79 8.22 113.72 8.27L113.72 8.27L113.72 8.27Q113.64 8.32 113.53 8.34L113.53 8.34L113.53 8.34Q113.43 8.37 113.34 8.51L113.34 8.51L113.34 8.51Q113.25 8.65 113.23 8.90L113.23 8.90L113.23 8.90Q113.22 9.07 113.20 9.28L113.20 9.28L113.20 9.28Q113.18 9.49 113.15 9.71L113.15 9.71L113.15 9.71Q113.12 9.93 113.11 10.01L113.11 10.01L113.11 10.01Q113.06 10.28 112.94 10.58L112.94 10.58L112.94 10.58Q112.81 10.89 112.71 11.10L112.71 11.10L112.71 11.10Q112.60 11.31 112.60 11.35L112.60 11.35L112.60 11.35Q112.60 11.48 113.44 12.00L113.44 12.00L113.44 12.00Q114.27 12.53 115.12 12.95L115.12 12.95L115.12 12.95Q115.40 13.09 115.72 13.09L115.72 13.09L115.72 13.09Q115.82 13.09 115.99 13.07L115.99 13.07L115.99 13.07Q116.16 13.05 116.23 13.05L116.23 13.05L116.23 13.05Q116.41 13.05 116.41 13.17L116.41 13.17L116.41 13.17Q116.41 13.40 116.01 13.55L116.01 13.55L116.01 13.55Q115.61 13.71 115.05 13.71L115.05 13.71L115.05 13.71Q114.51 13.71 114.00 13.56L114.00 13.56L114.00 13.56Q113.50 13.41 113.15 13.21L113.15 13.21L113.15 13.21Q112.80 13.01 112.53 12.80L112.53 12.80L112.53 12.80Q112.27 12.59 112.11 12.44L112.11 12.44L112.11 12.44Q111.94 12.29 111.92 12.29L111.92 12.29L111.92 12.29Q111.86 12.29 111.70 12.44L111.70 12.44L111.70 12.44Q111.54 12.59 111.27 12.80L111.27 12.80L111.27 12.80Q111.01 13.02 110.63 13.24L110.63 13.24L110.63 13.24Q110.25 13.45 109.62 13.60L109.62 13.60L109.62 13.60Q108.99 13.75 108.23 13.75L108.23 13.75L108.23 13.75Q107.79 13.75 107.34 13.68L107.34 13.68L107.34 13.68Q106.89 13.62 106.27 13.40L106.27 13.40L106.27 13.40Q105.64 13.17 105.18 12.80L105.18 12.80L105.18 12.80Q104.71 12.42 104.38 11.70L104.38 11.70L104.38 11.70Q104.05 10.99 104.05 10.05ZM104.97 9.58L104.97 9.58L104.97 9.58Q104.97 10.07 105.21 10.60L105.21 10.60L105.21 10.60Q105.45 11.13 105.90 11.64L105.90 11.64L105.90 11.64Q106.36 12.15 107.17 12.48L107.17 12.48L107.17 12.48Q107.98 12.81 108.99 12.81L108.99 12.81L108.99 12.81Q109.59 12.81 110.17 12.61L110.17 12.61L110.17 12.61Q110.75 12.40 111.05 12.20L111.05 12.20L111.05 12.20Q111.34 12.00 111.34 11.91L111.34 11.91L111.34 11.91Q111.34 11.86 110.98 11.58L110.98 11.58L110.98 11.58Q110.61 11.31 109.77 10.60L109.77 10.60L109.77 10.60Q108.93 9.88 108.07 9.02L108.07 9.02L108.07 9.02Q107.87 8.82 107.68 8.63L107.68 8.63L107.68 8.63Q107.49 8.44 107.37 8.32L107.37 8.32L107.37 8.32Q107.24 8.19 107.12 8.07L107.12 8.07L107.12 8.07Q107.00 7.95 106.93 7.88L106.93 7.88L106.93 7.88Q106.86 7.81 106.80 7.74L106.80 7.74L106.80 7.74Q106.74 7.67 106.69 7.64L106.69 7.64L106.69 7.64Q106.65 7.62 106.62 7.59L106.62 7.59L106.62 7.59Q106.58 7.56 106.55 7.55L106.55 7.55L106.55 7.55Q106.53 7.55 106.50 7.55L106.50 7.55L106.50 7.55Q106.04 7.55 105.50 8.13L105.50 8.13L105.50 8.13Q104.97 8.72 104.97 9.58ZM133.74 13.33L133.74 13.33L133.74 13.33Q133.74 13.13 133.95 13.06L133.95 13.06L133.95 13.06Q134.40 12.89 134.74 12.31L134.74 12.31L134.74 12.31Q135.07 11.73 136.40 8.83L136.40 8.83L136.40 8.83Q137.77 5.87 138.82 3.63L138.82 3.63L138.82 3.63Q138.92 3.42 139.00 3.36L139.00 3.36L139.00 3.36Q139.08 3.30 139.24 3.30L139.24 3.30L139.24 3.30Q139.37 3.30 139.41 3.36L139.41 3.36L139.41 3.36Q139.45 3.42 139.59 3.82L139.59 3.82L139.59 3.82Q139.68 4.06 139.74 4.23L139.74 4.23L139.74 4.23Q139.80 4.40 139.94 4.77L139.94 4.77L139.94 4.77Q140.08 5.15 140.25 5.56L140.25 5.56L140.25 5.56Q140.70 6.66 141.80 9.22L141.80 9.22L141.80 9.22Q142.90 11.77 143.00 11.98L143.00 11.98L143.00 11.98Q143.23 12.46 143.53 12.71L143.53 12.71L143.53 12.71Q143.82 12.95 144.04 12.97L144.04 12.97L144.04 12.97Q144.26 12.99 144.40 13.04L144.40 13.04L144.40 13.04Q144.55 13.09 144.55 13.26L144.55 13.26L144.55 13.26Q144.55 13.47 144.17 13.47L144.17 13.47L144.17 13.47Q144.02 13.47 143.57 13.43L143.57 13.43L143.57 13.43Q143.12 13.38 142.91 13.38L142.91 13.38L142.91 13.38Q142.65 13.38 142.23 13.41L142.23 13.41L142.23 13.41Q141.81 13.44 141.61 13.44L141.61 13.44L141.61 13.44Q141.18 13.44 141.06 13.40L141.06 13.40L141.06 13.40Q140.94 13.37 140.94 13.24L140.94 13.24L140.94 13.24Q140.94 13.15 141.05 13.08L141.05 13.08L141.05 13.08Q141.16 13.02 141.29 13.00L141.29 13.00L141.29 13.00Q141.41 12.98 141.53 12.87L141.53 12.87L141.53 12.87Q141.64 12.77 141.64 12.59L141.64 12.59L141.64 12.59Q141.64 12.28 141.29 11.33L141.29 11.33L141.29 11.33Q140.94 10.37 140.70 9.93L140.70 9.93L140.70 9.93Q140.57 9.69 140.13 9.69L140.13 9.69L140.13 9.69Q140.06 9.69 139.51 9.70L139.51 9.70L139.51 9.70Q138.96 9.72 138.43 9.72L138.43 9.72L137.69 9.72L137.69 9.72Q137.06 9.72 136.90 9.79L136.90 9.79L136.90 9.79Q136.74 9.86 136.61 10.12L136.61 10.12L136.61 10.12Q136.53 10.30 136.33 10.70L136.33 10.70L136.33 10.70Q136.14 11.10 136.07 11.26L136.07 11.26L136.07 11.26Q136.00 11.41 135.89 11.65L135.89 11.65L135.89 11.65Q135.79 11.90 135.75 12.05L135.75 12.05L135.75 12.05Q135.72 12.19 135.72 12.31L135.72 12.31L135.72 12.31Q135.72 12.63 135.88 12.80L135.88 12.80L135.88 12.80Q136.04 12.96 136.23 12.98L136.23 12.98L136.23 12.98Q136.43 13.01 136.59 13.06L136.59 13.06L136.59 13.06Q136.75 13.12 136.75 13.26L136.75 13.26L136.75 13.26Q136.75 13.36 136.71 13.40L136.71 13.40L136.71 13.40Q136.67 13.45 136.51 13.45L136.51 13.45L136.51 13.45Q136.43 13.45 136.03 13.45L136.03 13.45L136.03 13.45Q135.63 13.44 135.35 13.44L135.35 13.44L135.35 13.44Q135.04 13.44 134.66 13.47L134.66 13.47L134.66 13.47Q134.27 13.50 134.15 13.50L134.15 13.50L134.15 13.50Q133.74 13.50 133.74 13.33ZM137.26 8.71L137.26 8.71L137.26 8.71Q137.26 8.89 137.38 8.93L137.38 8.93L137.38 8.93Q137.51 8.97 137.97 8.97L137.97 8.97L138.40 8.97L139.73 8.96L139.73 8.96Q140.28 8.96 140.28 8.74L140.28 8.74L140.28 8.74Q140.28 8.55 139.59 7.01L139.59 7.01L139.59 7.01Q138.91 5.46 138.73 5.46L138.73 5.46L138.73 5.46Q138.60 5.46 137.93 7.01L137.93 7.01L137.93 7.01Q137.26 8.55 137.26 8.71ZM151.76 8.90L151.76 8.90L151.76 8.90Q151.76 7.38 152.35 6.16L152.35 6.16L152.35 6.16Q152.94 4.94 154.16 4.19L154.16 4.19L154.16 4.19Q155.39 3.44 157.07 3.44L157.07 3.44L157.07 3.44Q157.92 3.44 158.79 3.70L158.79 3.70L158.79 3.70Q159.66 3.95 160.17 4.20L160.17 4.20L160.69 4.47L160.69 4.47Q160.73 4.47 160.83 4.40L160.83 4.40L160.83 4.40Q160.93 4.33 160.99 4.33L160.99 4.33L160.99 4.33Q161.06 4.33 161.13 4.38L161.13 4.38L161.13 4.38Q161.20 4.44 161.20 4.55L161.20 4.55L161.20 4.55Q161.21 4.96 161.26 5.41L161.26 5.41L161.26 5.41Q161.31 5.87 161.35 6.16L161.35 6.16L161.35 6.16Q161.39 6.45 161.39 6.51L161.39 6.51L161.39 6.51Q161.39 6.76 161.22 6.76L161.22 6.76L161.22 6.76Q161.10 6.76 160.99 6.57L160.99 6.57L160.99 6.57Q159.63 4.02 157.07 4.02L157.07 4.02L157.07 4.02Q155.32 4.02 154.20 5.14L154.20 5.14L154.20 5.14Q153.08 6.26 153.08 8.06L153.08 8.06L153.08 8.06Q153.08 9.06 153.33 9.93L153.33 9.93L153.33 9.93Q153.59 10.79 154.12 11.51L154.12 11.51L154.12 11.51Q154.64 12.24 155.57 12.66L155.57 12.66L155.57 12.66Q156.49 13.08 157.72 13.08L157.72 13.08L157.72 13.08Q159.74 13.08 161.11 10.98L161.11 10.98L161.11 10.98Q161.17 10.88 161.32 10.88L161.32 10.88L161.32 10.88Q161.45 10.88 161.45 11.07L161.45 11.07L161.45 11.07Q161.45 11.23 161.40 11.49L161.40 11.49L161.40 11.49Q161.35 11.75 161.28 12.06L161.28 12.06L161.28 12.06Q161.21 12.38 161.20 12.45L161.20 12.45L161.20 12.45Q161.17 12.60 160.97 12.70L160.97 12.70L160.97 12.70Q160.22 13.06 159.79 13.24L159.79 13.24L159.79 13.24Q159.36 13.43 158.70 13.57L158.70 13.57L158.70 13.57Q158.05 13.72 157.36 13.72L157.36 13.72L157.36 13.72Q156.14 13.72 155.16 13.43L155.16 13.43L155.16 13.43Q154.18 13.13 153.56 12.66L153.56 12.66L153.56 12.66Q152.94 12.18 152.52 11.54L152.52 11.54L152.52 11.54Q152.10 10.91 151.93 10.25L151.93 10.25L151.93 10.25Q151.76 9.60 151.76 8.90ZM170.06 8.90L170.06 8.90L170.06 8.90Q170.06 7.38 170.65 6.16L170.65 6.16L170.65 6.16Q171.23 4.94 172.46 4.19L172.46 4.19L172.46 4.19Q173.68 3.44 175.36 3.44L175.36 3.44L175.36 3.44Q176.22 3.44 177.09 3.70L177.09 3.70L177.09 3.70Q177.95 3.95 178.47 4.20L178.47 4.20L178.99 4.47L178.99 4.47Q179.03 4.47 179.13 4.40L179.13 4.40L179.13 4.40Q179.23 4.33 179.28 4.33L179.28 4.33L179.28 4.33Q179.35 4.33 179.42 4.38L179.42 4.38L179.42 4.38Q179.49 4.44 179.49 4.55L179.49 4.55L179.49 4.55Q179.51 4.96 179.56 5.41L179.56 5.41L179.56 5.41Q179.61 5.87 179.65 6.16L179.65 6.16L179.65 6.16Q179.69 6.45 179.69 6.51L179.69 6.51L179.69 6.51Q179.69 6.76 179.52 6.76L179.52 6.76L179.52 6.76Q179.40 6.76 179.28 6.57L179.28 6.57L179.28 6.57Q177.93 4.02 175.36 4.02L175.36 4.02L175.36 4.02Q173.61 4.02 172.49 5.14L172.49 5.14L172.49 5.14Q171.37 6.26 171.37 8.06L171.37 8.06L171.37 8.06Q171.37 9.06 171.63 9.93L171.63 9.93L171.63 9.93Q171.89 10.79 172.42 11.51L172.42 11.51L172.42 11.51Q172.94 12.24 173.87 12.66L173.87 12.66L173.87 12.66Q174.79 13.08 176.02 13.08L176.02 13.08L176.02 13.08Q178.04 13.08 179.41 10.98L179.41 10.98L179.41 10.98Q179.47 10.88 179.62 10.88L179.62 10.88L179.62 10.88Q179.75 10.88 179.75 11.07L179.75 11.07L179.75 11.07Q179.75 11.23 179.70 11.49L179.70 11.49L179.70 11.49Q179.65 11.75 179.58 12.06L179.58 12.06L179.58 12.06Q179.51 12.38 179.49 12.45L179.49 12.45L179.49 12.45Q179.47 12.60 179.27 12.70L179.27 12.70L179.27 12.70Q178.51 13.06 178.09 13.24L178.09 13.24L178.09 13.24Q177.66 13.43 177.00 13.57L177.00 13.57L177.00 13.57Q176.34 13.72 175.66 13.72L175.66 13.72L175.66 13.72Q174.44 13.72 173.46 13.43L173.46 13.43L173.46 13.43Q172.48 13.13 171.86 12.66L171.86 12.66L171.86 12.66Q171.23 12.18 170.81 11.54L170.81 11.54L170.81 11.54Q170.39 10.91 170.23 10.25L170.23 10.25L170.23 10.25Q170.06 9.60 170.06 8.90ZM188.02 3.68L188.02 3.68L188.02 3.68Q188.02 3.61 188.03 3.58L188.03 3.58L188.03 3.58Q188.05 3.56 188.12 3.53L188.12 3.53L188.12 3.53Q188.19 3.50 188.34 3.50L188.34 3.50L188.34 3.50Q188.50 3.50 188.99 3.53L188.99 3.53L188.99 3.53Q189.48 3.56 189.92 3.56L189.92 3.56L189.92 3.56Q190.20 3.56 190.43 3.54L190.43 3.54L190.43 3.54Q190.67 3.53 191.24 3.53L191.24 3.53L191.24 3.53Q191.53 3.53 191.53 3.72L191.53 3.72L191.53 3.72Q191.53 3.85 191.44 3.88L191.44 3.88L191.44 3.88Q191.34 3.91 191.19 3.92L191.19 3.92L191.19 3.92Q191.04 3.93 190.90 4.02L190.90 4.02L190.90 4.02Q190.75 4.10 190.65 4.43L190.65 4.43L190.65 4.43Q190.55 4.76 190.55 5.32L190.55 5.32L190.55 5.71L190.55 5.71Q190.55 6.37 190.55 7.37L190.55 7.37L190.55 7.37Q190.54 8.37 190.54 8.74L190.54 8.74L190.54 8.74Q190.54 9.17 190.55 9.39L190.55 9.39L190.55 9.39Q190.55 9.62 190.58 10.04L190.58 10.04L190.58 10.04Q190.61 10.47 190.66 10.72L190.66 10.72L190.66 10.72Q190.71 10.96 190.82 11.32L190.82 11.32L190.82 11.32Q190.93 11.68 191.09 11.89L191.09 11.89L191.09 11.89Q191.25 12.10 191.50 12.35L191.50 12.35L191.50 12.35Q191.74 12.60 192.07 12.73L192.07 12.73L192.07 12.73Q192.39 12.87 192.82 12.96L192.82 12.96L192.82 12.96Q193.26 13.05 193.79 13.05L193.79 13.05L193.79 13.05Q194.24 13.05 194.49 13.03L194.49 13.03L194.49 13.03Q194.74 13.02 195.18 12.94L195.18 12.94L195.18 12.94Q195.62 12.87 195.88 12.72L195.88 12.72L195.88 12.72Q196.14 12.57 196.47 12.27L196.47 12.27L196.47 12.27Q196.80 11.97 196.98 11.54L196.98 11.54L196.98 11.54Q197.16 11.10 197.29 10.43L197.29 10.43L197.29 10.43Q197.41 9.76 197.41 8.90L197.41 8.90L197.41 8.90Q197.41 7.49 197.41 6.75L197.41 6.75L197.41 6.75Q197.40 6.01 197.40 5.94L197.40 5.94L197.40 5.94Q197.40 5.45 197.38 5.17L197.38 5.17L197.38 5.17Q197.36 4.89 197.24 4.55L197.24 4.55L197.24 4.55Q197.12 4.21 196.90 4.06L196.90 4.06L196.90 4.06Q196.76 3.96 196.53 3.93L196.53 3.93L196.53 3.93Q196.31 3.89 196.17 3.87L196.17 3.87L196.17 3.87Q196.03 3.85 196.03 3.75L196.03 3.75L196.03 3.75Q196.03 3.53 196.31 3.53L196.31 3.53L196.31 3.53Q196.39 3.53 196.85 3.54L196.85 3.54L196.85 3.54Q197.32 3.56 197.39 3.56L197.39 3.56L197.39 3.56Q197.72 3.56 198.10 3.54L198.10 3.54L198.10 3.54Q198.48 3.51 198.58 3.51L198.58 3.51L198.58 3.51Q198.87 3.51 198.87 3.70L198.87 3.70L198.87 3.70Q198.87 3.81 198.57 3.98L198.57 3.98L198.57 3.98Q198.27 4.16 198.20 4.30L198.20 4.30L198.20 4.30Q198.04 4.59 198.04 5.22L198.04 5.22L198.04 5.22Q198.04 5.32 198.05 5.62L198.05 5.62L198.05 5.62Q198.06 5.92 198.06 6.16L198.06 6.16L198.06 6.16Q198.06 8.85 197.83 10.28L197.83 10.28L197.83 10.28Q197.61 11.70 197.15 12.36L197.15 12.36L197.15 12.36Q196.70 13.01 195.79 13.40L195.79 13.40L195.79 13.40Q195.05 13.71 193.79 13.71L193.79 13.71L193.79 13.71Q191.45 13.71 190.47 12.81L190.47 12.81L190.47 12.81Q189.70 12.10 189.52 11.09L189.52 11.09L189.52 11.09Q189.34 10.09 189.34 7.64L189.34 7.64L189.34 7.41L189.34 7.41Q189.34 6.86 189.35 6.20L189.35 6.20L189.35 6.20Q189.36 5.54 189.36 5.39L189.36 5.39L189.36 5.39Q189.36 4.62 189.18 4.33L189.18 4.33L189.18 4.33Q189.00 4.05 188.33 3.95L188.33 3.95L188.33 3.95Q188.02 3.91 188.02 3.68ZM206.43 3.70L206.43 3.70L206.43 3.70Q206.43 3.47 206.84 3.47L206.84 3.47L209.16 3.47L209.16 3.47Q209.48 3.47 209.90 3.45L209.90 3.45L209.90 3.45Q210.32 3.43 210.56 3.43L210.56 3.43L210.56 3.43Q211.82 3.43 212.72 4.07L212.72 4.07L212.72 4.07Q213.61 4.70 213.61 5.78L213.61 5.78L213.61 5.78Q213.61 6.50 213.34 7.03L213.34 7.03L213.34 7.03Q213.07 7.57 212.74 7.81L212.74 7.81L212.74 7.81Q212.41 8.05 212.13 8.22L212.13 8.22L212.13 8.22Q211.86 8.40 211.86 8.46L211.86 8.46L211.86 8.46Q211.86 8.62 213.04 10.27L213.04 10.27L213.04 10.27Q214.21 11.91 214.65 12.38L214.65 12.38L214.65 12.38Q215.18 13.03 215.94 13.03L215.94 13.03L215.94 13.03Q216.13 13.03 216.13 13.20L216.13 13.20L216.13 13.20Q216.13 13.41 215.96 13.48L215.96 13.48L215.96 13.48Q215.80 13.55 215.10 13.55L215.10 13.55L215.10 13.55Q214.44 13.55 213.89 13.23L213.89 13.23L213.89 13.23Q213.19 12.82 211.53 10.09L211.53 10.09L211.53 10.09Q211.43 9.94 211.39 9.87L211.39 9.87L211.39 9.87Q210.71 8.78 210.35 8.78L210.35 8.78L210.06 8.78L209.20 8.78L209.20 8.78Q209.03 8.78 209.00 8.92L209.00 8.92L209.00 8.92Q208.96 9.06 208.96 9.77L208.96 9.77L208.96 9.77Q208.96 10.44 208.96 10.88L208.96 10.88L208.96 10.88Q208.96 11.31 208.97 11.43L208.97 11.43L208.97 11.43Q208.98 11.55 208.98 11.63L208.98 11.63L208.98 11.63Q208.98 11.70 208.98 11.75L208.98 11.75L208.98 11.75Q208.98 12.32 209.24 12.63L209.24 12.63L209.24 12.63Q209.51 12.95 209.84 13.00L209.84 13.00L209.84 13.00Q210.17 13.05 210.43 13.11L210.43 13.11L210.43 13.11Q210.70 13.17 210.70 13.31L210.70 13.31L210.70 13.31Q210.70 13.54 210.45 13.54L210.45 13.54L210.45 13.54Q210.43 13.54 209.48 13.49L209.48 13.49L209.48 13.49Q208.53 13.44 208.45 13.44L208.45 13.44L208.45 13.44Q208.04 13.44 207.48 13.47L207.48 13.47L207.48 13.47Q206.92 13.50 206.91 13.50L206.91 13.50L206.91 13.50Q206.61 13.50 206.61 13.27L206.61 13.27L206.61 13.27Q206.61 13.12 206.79 13.05L206.79 13.05L206.79 13.05Q206.98 12.99 207.20 12.96L207.20 12.96L207.20 12.96Q207.42 12.94 207.61 12.66L207.61 12.66L207.61 12.66Q207.79 12.38 207.79 11.86L207.79 11.86L207.79 11.86Q207.79 11.49 207.79 9.90L207.79 9.90L207.79 9.90Q207.80 8.30 207.80 7.45L207.80 7.45L207.80 7.45Q207.80 6.58 207.79 5.86L207.79 5.86L207.79 5.86Q207.79 5.14 207.79 5.08L207.79 5.08L207.79 5.08Q207.79 4.56 207.58 4.29L207.58 4.29L207.58 4.29Q207.37 4.02 207.11 3.98L207.11 3.98L207.11 3.98Q206.85 3.95 206.64 3.89L206.64 3.89L206.64 3.89Q206.43 3.84 206.43 3.70ZM208.96 5.54L208.96 5.94L208.96 5.94Q208.96 7.38 208.98 7.72L208.98 7.72L208.98 7.72Q208.99 8.06 209.08 8.12L209.08 8.12L209.08 8.12Q209.29 8.25 209.68 8.25L209.68 8.25L209.82 8.25L210.22 8.25L210.22 8.25Q211.41 8.25 211.92 7.70L211.92 7.70L211.92 7.70Q212.44 7.15 212.44 6.30L212.44 6.30L212.44 6.30Q212.44 5.43 211.76 4.72L211.76 4.72L211.76 4.72Q211.08 4.00 209.71 4.00L209.71 4.00L209.71 4.00Q209.19 4.00 209.08 4.28L209.08 4.28L209.08 4.28Q208.96 4.55 208.96 5.54L208.96 5.54ZM223.48 13.33L223.48 13.33L223.48 13.33Q223.48 13.13 223.69 13.06L223.69 13.06L223.69 13.06Q224.14 12.89 224.48 12.31L224.48 12.31L224.48 12.31Q224.81 11.73 226.14 8.83L226.14 8.83L226.14 8.83Q227.51 5.87 228.56 3.63L228.56 3.63L228.56 3.63Q228.66 3.42 228.74 3.36L228.74 3.36L228.74 3.36Q228.82 3.30 228.98 3.30L228.98 3.30L228.98 3.30Q229.11 3.30 229.15 3.36L229.15 3.36L229.15 3.36Q229.19 3.42 229.33 3.82L229.33 3.82L229.33 3.82Q229.42 4.06 229.48 4.23L229.48 4.23L229.48 4.23Q229.54 4.40 229.68 4.77L229.68 4.77L229.68 4.77Q229.82 5.15 229.99 5.56L229.99 5.56L229.99 5.56Q230.44 6.66 231.54 9.22L231.54 9.22L231.54 9.22Q232.64 11.77 232.74 11.98L232.74 11.98L232.74 11.98Q232.97 12.46 233.27 12.71L233.27 12.71L233.27 12.71Q233.56 12.95 233.78 12.97L233.78 12.97L233.78 12.97Q234.00 12.99 234.14 13.04L234.14 13.04L234.14 13.04Q234.29 13.09 234.29 13.26L234.29 13.26L234.29 13.26Q234.29 13.47 233.91 13.47L233.91 13.47L233.91 13.47Q233.76 13.47 233.31 13.43L233.31 13.43L233.31 13.43Q232.86 13.38 232.65 13.38L232.65 13.38L232.65 13.38Q232.39 13.38 231.97 13.41L231.97 13.41L231.97 13.41Q231.55 13.44 231.35 13.44L231.35 13.44L231.35 13.44Q230.92 13.44 230.80 13.40L230.80 13.40L230.80 13.40Q230.68 13.37 230.68 13.24L230.68 13.24L230.68 13.24Q230.68 13.15 230.79 13.08L230.79 13.08L230.79 13.08Q230.90 13.02 231.03 13.00L231.03 13.00L231.03 13.00Q231.15 12.98 231.27 12.87L231.27 12.87L231.27 12.87Q231.38 12.77 231.38 12.59L231.38 12.59L231.38 12.59Q231.38 12.28 231.03 11.33L231.03 11.33L231.03 11.33Q230.68 10.37 230.44 9.93L230.44 9.93L230.44 9.93Q230.31 9.69 229.87 9.69L229.87 9.69L229.87 9.69Q229.80 9.69 229.25 9.70L229.25 9.70L229.25 9.70Q228.70 9.72 228.17 9.72L228.17 9.72L227.43 9.72L227.43 9.72Q226.80 9.72 226.64 9.79L226.64 9.79L226.64 9.79Q226.48 9.86 226.35 10.12L226.35 10.12L226.35 10.12Q226.27 10.30 226.07 10.70L226.07 10.70L226.07 10.70Q225.88 11.10 225.81 11.26L225.81 11.26L225.81 11.26Q225.74 11.41 225.63 11.65L225.63 11.65L225.63 11.65Q225.53 11.90 225.49 12.05L225.49 12.05L225.49 12.05Q225.46 12.19 225.46 12.31L225.46 12.31L225.46 12.31Q225.46 12.63 225.62 12.80L225.62 12.80L225.62 12.80Q225.78 12.96 225.97 12.98L225.97 12.98L225.97 12.98Q226.17 13.01 226.33 13.06L226.33 13.06L226.33 13.06Q226.49 13.12 226.49 13.26L226.49 13.26L226.49 13.26Q226.49 13.36 226.45 13.40L226.45 13.40L226.45 13.40Q226.41 13.45 226.25 13.45L226.25 13.45L226.25 13.45Q226.17 13.45 225.77 13.45L225.77 13.45L225.77 13.45Q225.37 13.44 225.09 13.44L225.09 13.44L225.09 13.44Q224.78 13.44 224.40 13.47L224.40 13.47L224.40 13.47Q224.01 13.50 223.89 13.50L223.89 13.50L223.89 13.50Q223.48 13.50 223.48 13.33ZM227.00 8.71L227.00 8.71L227.00 8.71Q227.00 8.89 227.12 8.93L227.12 8.93L227.12 8.93Q227.25 8.97 227.71 8.97L227.71 8.97L228.14 8.97L229.47 8.96L229.47 8.96Q230.02 8.96 230.02 8.74L230.02 8.74L230.02 8.74Q230.02 8.55 229.33 7.01L229.33 7.01L229.33 7.01Q228.65 5.46 228.47 5.46L228.47 5.46L228.47 5.46Q228.34 5.46 227.67 7.01L227.67 7.01L227.67 7.01Q227.00 8.55 227.00 8.71ZM241.50 8.90L241.50 8.90L241.50 8.90Q241.50 7.38 242.09 6.16L242.09 6.16L242.09 6.16Q242.68 4.94 243.90 4.19L243.90 4.19L243.90 4.19Q245.13 3.44 246.81 3.44L246.81 3.44L246.81 3.44Q247.66 3.44 248.53 3.70L248.53 3.70L248.53 3.70Q249.40 3.95 249.91 4.20L249.91 4.20L250.43 4.47L250.43 4.47Q250.47 4.47 250.57 4.40L250.57 4.40L250.57 4.40Q250.67 4.33 250.73 4.33L250.73 4.33L250.73 4.33Q250.80 4.33 250.87 4.38L250.87 4.38L250.87 4.38Q250.94 4.44 250.94 4.55L250.94 4.55L250.94 4.55Q250.95 4.96 251.00 5.41L251.00 5.41L251.00 5.41Q251.05 5.87 251.09 6.16L251.09 6.16L251.09 6.16Q251.13 6.45 251.13 6.51L251.13 6.51L251.13 6.51Q251.13 6.76 250.96 6.76L250.96 6.76L250.96 6.76Q250.84 6.76 250.73 6.57L250.73 6.57L250.73 6.57Q249.37 4.02 246.81 4.02L246.81 4.02L246.81 4.02Q245.06 4.02 243.94 5.14L243.94 5.14L243.94 5.14Q242.82 6.26 242.82 8.06L242.82 8.06L242.82 8.06Q242.82 9.06 243.07 9.93L243.07 9.93L243.07 9.93Q243.33 10.79 243.86 11.51L243.86 11.51L243.86 11.51Q244.38 12.24 245.31 12.66L245.31 12.66L245.31 12.66Q246.23 13.08 247.46 13.08L247.46 13.08L247.46 13.08Q249.48 13.08 250.85 10.98L250.85 10.98L250.85 10.98Q250.91 10.88 251.06 10.88L251.06 10.88L251.06 10.88Q251.19 10.88 251.19 11.07L251.19 11.07L251.19 11.07Q251.19 11.23 251.14 11.49L251.14 11.49L251.14 11.49Q251.09 11.75 251.02 12.06L251.02 12.06L251.02 12.06Q250.95 12.38 250.94 12.45L250.94 12.45L250.94 12.45Q250.91 12.60 250.71 12.70L250.71 12.70L250.71 12.70Q249.96 13.06 249.53 13.24L249.53 13.24L249.53 13.24Q249.10 13.43 248.44 13.57L248.44 13.57L248.44 13.57Q247.79 13.72 247.10 13.72L247.10 13.72L247.10 13.72Q245.88 13.72 244.90 13.43L244.90 13.43L244.90 13.43Q243.92 13.13 243.30 12.66L243.30 12.66L243.30 12.66Q242.68 12.18 242.26 11.54L242.26 11.54L242.26 11.54Q241.84 10.91 241.67 10.25L241.67 10.25L241.67 10.25Q241.50 9.60 241.50 8.90ZM259.46 3.81L259.46 3.81L259.46 3.81Q259.46 3.65 259.62 3.61L259.62 3.61L259.62 3.61Q259.78 3.57 260.33 3.57L260.33 3.57L260.33 3.57Q260.41 3.57 260.71 3.58L260.71 3.58L260.71 3.58Q261.02 3.60 261.14 3.60L261.14 3.60L261.14 3.60Q261.30 3.60 261.71 3.59L261.71 3.59L261.71 3.59Q262.12 3.58 262.33 3.58L262.33 3.58L262.33 3.58Q263.03 3.58 263.03 3.75L263.03 3.75L263.03 3.75Q263.03 3.91 262.74 4.01L262.74 4.01L262.74 4.01Q262.44 4.12 262.44 4.24L262.44 4.24L262.44 4.24Q262.44 4.38 262.53 4.61L262.53 4.61L262.53 4.61Q262.63 4.83 262.72 4.97L262.72 4.97L262.72 4.97Q262.81 5.11 262.99 5.38L262.99 5.38L262.99 5.38Q263.17 5.64 263.20 5.70L263.20 5.70L263.20 5.70Q263.68 6.45 264.19 7.14L264.19 7.14L264.19 7.14Q264.70 7.83 264.77 7.83L264.77 7.83L264.77 7.83Q264.85 7.83 264.98 7.66L264.98 7.66L264.98 7.66Q265.10 7.50 265.33 7.13L265.33 7.13L265.33 7.13Q265.55 6.75 265.71 6.52L265.71 6.52L265.71 6.52Q265.75 6.45 265.91 6.22L265.91 6.22L265.91 6.22Q266.07 5.98 266.13 5.88L266.13 5.88L266.13 5.88Q266.20 5.78 266.32 5.58L266.32 5.58L266.32 5.58Q266.45 5.38 266.50 5.27L266.50 5.27L266.50 5.27Q266.56 5.17 266.64 5.02L266.64 5.02L266.64 5.02Q266.71 4.87 266.74 4.77L266.74 4.77L266.74 4.77Q266.77 4.68 266.77 4.59L266.77 4.59L266.77 4.59Q266.77 4.14 266.29 4.03L266.29 4.03L266.29 4.03Q266.24 4.02 266.13 4.00L266.13 4.00L266.13 4.00Q266.03 3.99 265.98 3.98L265.98 3.98L265.98 3.98Q265.93 3.96 265.86 3.93L265.86 3.93L265.86 3.93Q265.79 3.91 265.76 3.86L265.76 3.86L265.76 3.86Q265.73 3.81 265.73 3.74L265.73 3.74L265.73 3.74Q265.73 3.57 266.13 3.57L266.13 3.57L266.13 3.57Q266.20 3.57 266.38 3.58L266.38 3.58L266.38 3.58Q266.57 3.58 266.70 3.58L266.70 3.58L266.70 3.58Q267.02 3.58 267.48 3.59L267.48 3.59L267.48 3.59Q267.93 3.60 268.18 3.60L268.18 3.60L268.18 3.60Q268.87 3.60 268.87 3.81L268.87 3.81L268.87 3.81Q268.87 3.86 268.79 3.91L268.79 3.91L268.79 3.91Q268.70 3.95 268.55 4.02L268.55 4.02L268.55 4.02Q268.39 4.09 268.27 4.19L268.27 4.19L268.27 4.19Q267.69 4.63 266.58 6.31L266.58 6.31L266.58 6.31Q265.47 7.99 265.31 8.19L265.31 8.19L265.31 8.19Q265.09 8.47 265.03 8.81L265.03 8.81L265.03 8.81Q264.98 9.14 264.98 9.95L264.98 9.95L264.98 9.95Q264.98 10.14 264.98 10.73L264.98 10.73L264.98 10.73Q264.99 11.33 264.99 11.58L264.99 11.58L264.99 11.91L264.99 11.91Q264.99 12.38 265.15 12.64L265.15 12.64L265.15 12.64Q265.31 12.91 265.45 12.96L265.45 12.96L265.45 12.96Q265.59 13.01 265.73 13.01L265.73 13.01L265.73 13.01Q265.76 13.01 265.87 13.01L265.87 13.01L265.87 13.01Q265.99 13.02 266.01 13.02L266.01 13.02L266.01 13.02Q266.11 13.02 266.17 13.08L266.17 13.08L266.17 13.08Q266.22 13.15 266.22 13.22L266.22 13.22L266.22 13.22Q266.22 13.36 266.15 13.40L266.15 13.40L266.15 13.40Q266.08 13.44 265.89 13.44L265.89 13.44L265.89 13.44Q265.82 13.44 265.28 13.43L265.28 13.43L265.28 13.43Q264.74 13.43 264.49 13.43L264.49 13.43L264.49 13.43Q264.00 13.43 263.59 13.45L263.59 13.45L263.59 13.45Q263.19 13.48 262.95 13.48L262.95 13.48L262.95 13.48Q262.56 13.48 262.56 13.33L262.56 13.33L262.56 13.33Q262.56 13.20 262.63 13.15L262.63 13.15L262.63 13.15Q262.71 13.10 262.89 13.09L262.89 13.09L262.89 13.09Q263.07 13.08 263.16 13.05L263.16 13.05L263.16 13.05Q263.75 12.87 263.75 12.19L263.75 12.19L263.75 12.19Q263.75 12.11 263.75 11.92L263.75 11.92L263.75 11.92Q263.76 11.73 263.77 11.12L263.77 11.12L263.77 11.12Q263.77 10.50 263.77 9.35L263.77 9.35L263.77 9.35Q263.77 9.13 263.74 8.97L263.74 8.97L263.74 8.97Q263.70 8.81 263.65 8.65L263.65 8.65L263.65 8.65Q263.61 8.50 263.42 8.20L263.42 8.20L263.42 8.20Q263.23 7.91 263.05 7.64L263.05 7.64L263.05 7.64Q262.86 7.36 262.42 6.72L262.42 6.72L262.42 6.72Q261.98 6.08 261.58 5.46L261.58 5.46L261.58 5.46Q261.14 4.80 260.79 4.46L260.79 4.46L260.79 4.46Q260.44 4.12 260.25 4.05L260.25 4.05L260.25 4.05Q260.06 3.99 259.81 3.99L259.81 3.99L259.81 3.99Q259.46 3.99 259.46 3.81Z"></path></g></svg>