<svg data-v-fde0c5aa="" xmlns="http://www.w3.org/2000/svg" viewBox="0 0 300 300" class="font"><!----><defs data-v-fde0c5aa=""><!----></defs><rect data-v-fde0c5aa="" fill="#F7F2D9" x="0" y="0" width="300px" height="300px" class="logo-background-square"></rect><defs data-v-fde0c5aa=""><linearGradient data-v-fde0c5aa="" gradientTransform="rotate(25)" id="e1568d7a-b8bb-458c-b5a5-2a5315481361" x1="0%" y1="0%" x2="100%" y2="0%"><stop data-v-fde0c5aa="" offset="0%" stop-color="#C5194B" stop-opacity="1"></stop><stop data-v-fde0c5aa="" offset="100%" stop-color="#DFDF4F" stop-opacity="1"></stop></linearGradient></defs><g data-v-fde0c5aa="" id="9f118d9c-f116-45dd-8473-0c34c730c689" fill="url(#e1568d7a-b8bb-458c-b5a5-2a5315481361)" transform="matrix(8.295625799493358,0,0,8.295625799493358,35.93514327913502,71.2745130615261)"><path d="M4.33 5.12L4.33 5.12Q6.59 5.12 7.67 6.22L7.67 6.22L7.67 6.22Q8.75 7.32 8.75 9.24L8.75 9.24L8.75 9.24Q8.75 11.23 7.72 12.47L7.72 12.47L7.72 12.47Q6.69 13.72 4.59 13.72L4.59 13.72L0.50 13.72L0.50 13.09L1.68 12.75L1.68 6.08L0.49 5.75L0.49 5.12L4.33 5.12ZM4.31 5.99L4.31 5.99Q3.91 5.99 3.57 6.08L3.57 6.08L3.57 12.75L3.57 12.75Q4.10 12.92 4.66 12.92L4.66 12.92L4.66 12.92Q5.87 12.92 6.31 11.92L6.31 11.92L6.31 11.92Q6.76 10.92 6.76 9.24L6.76 9.24L6.76 9.24Q6.76 8.29 6.46 7.55L6.46 7.55L6.46 7.55Q6.16 6.82 5.61 6.41L5.61 6.41L5.61 6.41Q5.05 5.99 4.31 5.99L4.31 5.99ZM12.43 7.76L12.43 7.76Q11.90 7.76 11.42 7.92L11.42 7.92L11.12 9.10L10.29 9.10L10.05 7.21L10.05 7.21Q11.45 6.69 12.95 6.69L12.95 6.69L12.95 6.69Q14.08 6.69 14.65 7.07L14.65 7.07L14.65 7.07Q15.22 7.45 15.22 8.44L15.22 8.44L15.22 12.56L16.31 12.95L16.31 13.55L16.31 13.55Q15.75 13.69 15.44 13.74L15.44 13.74L15.44 13.74Q15.13 13.79 14.77 13.79L14.77 13.79L14.77 13.79Q14.28 13.79 13.88 13.60L13.88 13.60L13.88 13.60Q13.48 13.41 13.37 13.05L13.37 13.05L13.37 13.05Q12.81 13.47 12.33 13.66L12.33 13.66L12.33 13.66Q11.86 13.86 11.30 13.86L11.30 13.86L11.30 13.86Q10.53 13.86 10.09 13.40L10.09 13.40L10.09 13.40Q9.65 12.94 9.65 12.14L9.65 12.14L9.65 12.14Q9.65 11.47 10.06 10.89L10.06 10.89L10.06 10.89Q10.47 10.30 11.44 10.11L11.44 10.11L13.33 9.72L13.33 8.74L13.33 8.74Q13.33 8.19 13.13 7.97L13.13 7.97L13.13 7.97Q12.92 7.76 12.43 7.76L12.43 7.76ZM12.49 10.74L12.49 10.74Q11.94 10.88 11.72 11.17L11.72 11.17L11.72 11.17Q11.49 11.47 11.49 11.94L11.49 11.94L11.49 11.94Q11.49 12.73 12.22 12.73L12.22 12.73L12.22 12.73Q12.49 12.73 12.80 12.61L12.80 12.61L12.80 12.61Q13.12 12.49 13.33 12.35L13.33 12.35L13.33 10.53L12.49 10.74ZM20.64 7.88L20.64 7.88Q20.09 7.88 19.73 8.11L19.73 8.11L19.73 12.74L21.35 13.02L21.35 13.72L16.74 13.72L16.74 13.02L17.84 12.74L17.84 8.06L16.74 7.91L16.74 7.24L19.10 6.69L19.73 6.69L19.73 7.34L19.73 7.34Q20.19 7.03 20.76 6.84L20.76 6.84L20.76 6.84Q21.34 6.65 21.81 6.65L21.81 6.65L21.81 6.65Q22.13 6.65 22.22 6.66L22.22 6.66L21.95 9.17L20.93 9.17L20.64 7.88ZM26.81 13.54L26.81 13.54Q26.38 13.68 25.79 13.76L25.79 13.76L25.79 13.76Q25.21 13.85 24.81 13.85L24.81 13.85L24.81 13.85Q24.08 13.85 23.82 13.54L23.82 13.54L23.82 13.54Q23.56 13.24 23.56 12.75L23.56 12.75L23.56 7.84L22.55 7.84L22.55 7.18L23.72 6.66L24.57 5.26L25.42 5.26L25.42 6.83L27.01 6.83L27.01 7.92L25.42 7.83L25.42 12.53L26.81 12.84L26.81 13.54Z"></path></g><!----><!----></svg>